<?xml version="1.0" encoding="iso-8859-1"?>
<!-- Generator: Adobe Illustrator 16.0.0, SVG Export Plug-In . SVG Version: 6.00 Build 0)  -->
<!DOCTYPE svg PUBLIC "-//W3C//DTD SVG 1.1//EN" "http://www.w3.org/Graphics/SVG/1.1/DTD/svg11.dtd">
<svg version="1.1" id="Capa_1" xmlns="http://www.w3.org/2000/svg" xmlns:xlink="http://www.w3.org/1999/xlink" x="0px" y="0px"
	 width="571.565px" height="571.565px" viewBox="0 0 571.565 571.565" style="enable-background:new 0 0 571.565 571.565;"
	 xml:space="preserve">
<g>
	<g>
		<polygon points="494.646,318.105 319.941,385.205 312.907,308.589 445.686,221.636 310.336,280.614 302.089,190.8 380.97,109.726 
			300.602,174.625 286.566,21.784 272.563,174.251 192.658,109.726 271.085,190.335 262.814,280.406 127.941,221.636 
			260.256,308.282 253.209,385.021 78.981,318.105 248.166,439.921 236.076,571.565 337.056,571.565 324.997,440.254 		"/>
		<path d="M109.735,441.371c2.295,0.024,4.621,0.01,6.891-0.346c0.226-0.192,0.263-1.407,0.315-1.683
			c0.903-4.835,1.802-9.667,2.705-14.499c-7.528,5.566-15.052,11.133-22.58,16.702C101.06,440.554,105.671,441.335,109.735,441.371z
			"/>
		<path d="M135.271,413.467c-2.255,1.652-4.511,3.305-6.763,4.954c-1.255,0.918-4.859,2.583-5.144,4.224
			c-1.049,6.034-2.096,12.071-3.146,18.108c1.554-0.021,10.673-0.312,10.949-2.065c0.422-2.665,0.848-5.327,1.27-7.992
			c0.609-3.819,1.221-7.635,1.845-11.454C134.404,418.485,135.735,414.076,135.271,413.467z"/>
		<path d="M147.201,421.873c1.071-6.401,2.13-12.803,3.186-19.208c-3.103,2.16-6.206,4.321-9.275,6.533
			c-2.261,1.628-1.9,3.091-2.313,5.879c-1.123,7.619-2.286,15.232-3.452,22.846c2.837-1.037,9.504-2.378,10.113-5.812
			C146.069,428.703,146.629,425.288,147.201,421.873z"/>
		<path d="M154.27,399.694c-0.97,0.7-1.062,6.321-1.243,7.451c-1.267,7.857-2.53,15.719-3.797,23.577
			c11.594-8.562,18.302-23.256,13.929-37.451C160.197,395.416,157.232,397.555,154.27,399.694z"/>
		<path d="M102.375,420.3c-0.279-0.021-1.46-0.306-1.708-0.138c-0.939,2.103-1.561,4.343-2.139,6.563
			c-1.025,3.933-1.484,8.587-3.482,12.183c7.344-5.809,14.685-11.613,22.029-17.421C112.176,421.093,107.277,420.694,102.375,420.3z
			"/>
		<path d="M132.152,409.388c-0.465-0.608-5.074-0.48-5.833-0.56c-3.846-0.397-7.693-0.808-11.539-1.221
			c-2.684-0.288-5.364-0.575-8.048-0.866c-1.763-0.189-4.431,8.531-4.859,10.027c6.099,0.569,12.2,1.139,18.299,1.705
			c1.658,0.155,4.208-2.889,5.422-3.859C127.783,412.877,129.967,411.132,132.152,409.388z"/>
		<path d="M108.569,402.91c7.653,0.869,15.306,1.741,22.953,2.649c2.797,0.334,4.119,1.062,6.282-0.691
			c2.938-2.381,5.832-4.813,8.733-7.243c-6.457-0.657-12.913-1.312-19.373-1.955c-3.446-0.343-6.891-0.694-10.337-1
			C113.352,394.36,110.313,400.443,108.569,402.91z"/>
		<path d="M119.147,391.396c7.917,0.835,15.833,1.674,23.749,2.509c1.138,0.119,6.585,1.506,7.518,0.753
			c2.843-2.301,5.683-4.6,8.525-6.897C146.384,379.822,130.451,382.451,119.147,391.396z"/>
		<path d="M17.491,356.637c3.957,1.12,7.577,4.082,11.086,6.129c1.98,1.157,4.006,2.299,6.157,3.115
			c0.294-0.055,0.924-1.093,1.108-1.307c3.179-3.751,6.358-7.5,9.538-11.248C36.083,354.431,26.79,355.535,17.491,356.637z"/>
		<path d="M60.87,355.716c0.48-0.594,3.822-3.764,3.721-4.525c-2.775,0.314-5.554,0.633-8.329,0.948
			c-1.545,0.175-5.502-0.165-6.561,1.117c-3.905,4.721-7.806,9.442-11.711,14.167c1.362,0.753,9.425,5.019,10.533,3.636
			c1.689-2.105,3.378-4.208,5.067-6.312C56.013,361.734,58.437,358.724,60.87,355.716z"/>
		<path d="M83.073,349.305c-3.767,0.34-7.534,0.674-11.292,1.074c-2.769,0.294-3.182,1.741-4.923,3.96
			c-4.752,6.062-9.538,12.096-14.324,18.13c2.977,0.509,9.434,2.647,11.665-0.03c2.215-2.659,4.397-5.349,6.588-8.029
			C74.887,359.379,78.981,354.342,83.073,349.305z"/>
		<path d="M87.917,348.65c-1.19,0.128-4.055,4.963-4.774,5.856c-4.997,6.196-9.991,12.396-14.985,18.593
			c14.312-1.689,27.424-11.123,30.665-25.618C95.188,347.873,91.552,348.262,87.917,348.65z"/>
		<path d="M32.635,340.819c-0.232-0.156-1.114-0.991-1.414-0.964c-1.857,1.358-3.507,2.999-5.11,4.64
			c-2.839,2.906-5.548,6.723-9.063,8.853c9.256-1.405,18.51-2.807,27.766-4.208C40.756,346.364,36.695,343.592,32.635,340.819z"/>
		<path d="M55.619,347.398c2.76-0.432,5.523-0.859,8.283-1.291c-0.101-0.762-4.167-2.932-4.786-3.378
			c-3.143-2.253-6.279-4.517-9.416-6.781c-2.188-1.579-4.376-3.161-6.561-4.743c-1.435-1.037-8.078,5.214-9.192,6.301
			c5.015,3.516,10.031,7.035,15.049,10.554C50.361,349.015,54.083,347.638,55.619,347.398z"/>
		<path d="M71.05,344.981c3.73-0.612,7.451-1.285,11.172-1.962c-5.282-3.772-10.563-7.543-15.854-11.304
			c-2.821-2.004-5.64-4.018-8.482-5.994c-2.861-1.989-8.516,1.787-11.255,3.062c6.215,4.551,12.43,9.098,18.617,13.682
			C67.519,344.143,68.302,345.431,71.05,344.981z"/>
		<path d="M97.893,340.603c-6.971-13.118-22.112-18.733-36.362-16.57c6.46,4.651,12.919,9.303,19.382,13.954
			c0.93,0.67,4.972,4.571,6.157,4.379C90.677,341.777,94.285,341.189,97.893,340.603z"/>
		<path d="M111.555,277.863c0.062-0.19,0.453-0.958,0.376-1.154c-1.294-0.995-2.739-1.793-4.177-2.561
			c-2.543-1.359-5.683-2.442-7.831-4.416c2.794,6.028,5.587,12.056,8.384,18.084C109.389,284.497,110.472,281.18,111.555,277.863z"
			/>
		<path d="M114.168,300.217c0.496-0.221,1.169-3.421,1.35-3.933c0.912-2.589,1.827-5.177,2.748-7.763
			c0.643-1.806,1.285-3.608,1.928-5.411c0.422-1.184-5.156-4.467-6.117-5.009c-1.398,4.116-2.8,8.234-4.201,12.35
			c-0.383,1.12,1.297,3.382,1.769,4.382C112.482,296.627,113.327,298.42,114.168,300.217z"/>
		<path d="M126.858,292.068c0.787-2.345-2.907-5.447-4.324-7.06c-1.864,5.138-3.73,10.276-5.621,15.404
			c-0.692,1.876-1.414,2.665-0.56,4.449c1.16,2.421,2.356,4.823,3.556,7.225c1.521-4.348,3.039-8.696,4.55-13.048
			C125.267,296.719,126.078,294.399,126.858,292.068z"/>
		<path d="M124.673,322.282c7.552-7.356,8.373-18.788,4.064-28.066c-1.885,5.324-3.77,10.652-5.655,15.977
			c-0.272,0.765-2.127,4.296-1.763,5.064C122.437,317.598,123.557,319.938,124.673,322.282z"/>
		<path d="M95.796,279.46c-0.395,1.579-0.771,3.188-0.9,4.816c0.095,0.19,0.927,0.413,1.111,0.496
			c3.188,1.42,6.374,2.843,9.562,4.263c-2.598-6.114-5.196-12.231-7.793-18.345C97.792,273.607,96.494,276.664,95.796,279.46z"/>
		<path d="M99.413,296.896c2.534,1.053,5.071,2.105,7.601,3.164c0.502,0.208,3.326,1.857,3.825,1.634
			c-0.768-1.83-1.536-3.656-2.304-5.486c-0.428-1.02-0.979-3.779-2.065-4.247c-3.993-1.721-7.987-3.443-11.98-5.162
			c-0.242,1.076-1.545,7.417-0.382,7.897C95.876,295.431,97.645,296.162,99.413,296.896z"/>
		<path d="M96.286,305.651c2.252,0.982,4.517,1.934,6.781,2.892c4.241,1.796,8.485,3.586,12.732,5.37
			c-0.979-2.5-1.955-4.997-2.974-7.481c-0.753-1.827-1.821-1.824-3.678-2.567c-5.073-2.035-10.135-4.095-15.199-6.157
			C94.193,299.84,94.016,304.663,96.286,305.651z"/>
		<path d="M120.169,324.28c-0.989-2.399-1.977-4.798-2.965-7.197c-0.324-0.786-4.189-1.774-4.939-2.09
			c-5.217-2.173-10.432-4.342-15.646-6.515C100.619,317.897,109.649,324.953,120.169,324.28z"/>
		<path d="M62.969,265.335c0.061-0.189,0.453-0.958,0.376-1.153c-1.294-0.995-2.739-1.793-4.177-2.562
			c-2.542-1.358-5.682-2.442-7.831-4.416c2.794,6.028,5.588,12.057,8.385,18.084C60.805,271.97,61.889,268.656,62.969,265.335z"/>
		<path d="M63.058,282.303c0.841,1.796,1.686,3.592,2.527,5.386c0.496-0.221,1.169-3.422,1.35-3.933
			c0.912-2.589,1.827-5.178,2.748-7.763c0.643-1.806,1.285-3.608,1.928-5.41c0.422-1.184-5.156-4.468-6.117-5.009
			c-1.398,4.116-2.8,8.234-4.201,12.35C60.909,279.042,62.589,281.306,63.058,282.303z"/>
		<path d="M67.77,292.337c1.16,2.421,2.356,4.822,3.556,7.225c1.521-4.348,3.039-8.696,4.55-13.048
			c0.805-2.322,1.619-4.642,2.399-6.971c0.786-2.344-2.907-5.447-4.324-7.059c-1.864,5.138-3.73,10.275-5.622,15.404
			C67.638,289.764,66.916,290.553,67.77,292.337z"/>
		<path d="M80.15,281.688c-1.885,5.325-3.77,10.652-5.655,15.976c-0.272,0.766-2.126,4.297-1.763,5.064
			c1.117,2.341,2.237,4.682,3.354,7.022C83.642,302.398,84.462,290.967,80.15,281.688z"/>
		<path d="M56.983,276.508c-2.598-6.114-5.196-12.231-7.797-18.345c0.021,2.919-1.276,5.973-1.974,8.773
			c-0.395,1.579-0.771,3.188-0.9,4.816c0.095,0.189,0.927,0.413,1.111,0.496C50.609,273.665,53.795,275.084,56.983,276.508z"/>
		<path d="M50.83,284.369c2.534,1.053,5.07,2.106,7.601,3.165c0.502,0.207,3.326,1.857,3.825,1.634
			c-0.768-1.83-1.536-3.657-2.304-5.487c-0.429-1.019-0.982-3.779-2.065-4.247c-3.994-1.72-7.987-3.443-11.98-5.163
			c-0.242,1.077-1.545,7.417-0.383,7.898C47.292,282.903,49.061,283.634,50.83,284.369z"/>
		<path d="M60.561,291.34c-5.074-2.035-10.135-4.095-15.199-6.157c0.248,2.13,0.07,6.952,2.338,7.94
			c2.252,0.982,4.517,1.934,6.781,2.892c4.241,1.797,8.486,3.587,12.733,5.371c-0.979-2.5-1.956-4.997-2.974-7.481
			C63.486,292.076,62.415,292.083,60.561,291.34z"/>
		<path d="M71.585,311.756c-0.988-2.399-1.977-4.798-2.965-7.197c-0.325-0.786-4.189-1.774-4.939-2.09
			c-5.217-2.173-10.432-4.342-15.646-6.515C52.032,305.369,61.065,312.426,71.585,311.756z"/>
		<path d="M238.857,214.576c0.061-0.189,0.453-0.958,0.376-1.153c-1.294-0.995-2.739-1.793-4.177-2.562
			c-2.543-1.358-5.683-2.442-7.831-4.416c2.793,6.028,5.59,12.057,8.384,18.084C236.694,221.21,237.777,217.894,238.857,214.576z"/>
		<path d="M241.379,214.815c-1.401,4.116-2.8,8.234-4.201,12.35c-0.383,1.12,1.297,3.381,1.766,4.382
			c0.841,1.796,1.686,3.593,2.527,5.386c0.496-0.22,1.169-3.421,1.35-3.932c0.912-2.589,1.827-5.177,2.748-7.763
			c0.643-1.806,1.285-3.608,1.928-5.41C247.921,218.64,242.34,215.356,241.379,214.815z"/>
		<path d="M244.219,237.128c-0.692,1.876-1.414,2.666-0.56,4.449c1.16,2.42,2.359,4.823,3.556,7.225
			c1.521-4.348,3.039-8.696,4.55-13.048c0.805-2.322,1.619-4.642,2.399-6.971c0.787-2.344-2.907-5.447-4.324-7.059
			C247.976,226.862,246.113,232,244.219,237.128z"/>
		<path d="M248.625,251.969c1.117,2.341,2.237,4.682,3.354,7.023c7.552-7.353,8.373-18.789,4.064-28.066
			c-1.885,5.324-3.77,10.652-5.655,15.977C250.112,247.673,248.258,251.205,248.625,251.969z"/>
		<path d="M223.102,216.174c-0.395,1.579-0.771,3.188-0.9,4.816c0.095,0.189,0.927,0.413,1.111,0.496
			c3.188,1.42,6.374,2.843,9.562,4.263c-2.598-6.114-5.196-12.231-7.793-18.345C225.097,210.32,223.799,213.377,223.102,216.174z"/>
		<path d="M226.718,233.609c2.534,1.053,5.071,2.105,7.601,3.164c0.502,0.208,3.326,1.857,3.825,1.634
			c-0.768-1.83-1.536-3.657-2.304-5.487c-0.428-1.019-0.979-3.779-2.065-4.247c-3.993-1.72-7.987-3.443-11.98-5.163
			c-0.242,1.077-1.545,7.417-0.386,7.898C223.181,232.144,224.95,232.875,226.718,233.609z"/>
		<path d="M223.588,242.364c2.252,0.982,4.517,1.934,6.781,2.892c4.241,1.796,8.485,3.586,12.732,5.37
			c-0.979-2.5-1.955-4.997-2.974-7.481c-0.753-1.827-1.821-1.824-3.678-2.567c-5.073-2.035-10.135-4.094-15.199-6.157
			C221.498,236.553,221.321,241.376,223.588,242.364z"/>
		<path d="M247.475,260.997c-0.989-2.399-1.977-4.798-2.965-7.197c-0.324-0.787-4.189-1.775-4.939-2.09
			c-5.217-2.173-10.432-4.342-15.649-6.515C227.921,254.61,236.951,261.667,247.475,260.997z"/>
		<path d="M188.037,195.647c0.061-0.189,0.453-0.958,0.376-1.153c-1.294-0.995-2.739-1.793-4.177-2.562
			c-2.542-1.358-5.682-2.442-7.831-4.416c2.794,6.028,5.591,12.057,8.385,18.084C185.871,202.281,186.954,198.967,188.037,195.647z"
			/>
		<path d="M190.65,218.003c0.499-0.22,1.169-3.421,1.349-3.932c0.912-2.589,1.827-5.177,2.748-7.763
			c0.643-1.805,1.285-3.608,1.928-5.41c0.422-1.184-5.156-4.467-6.117-5.009c-1.402,4.116-2.8,8.234-4.202,12.351
			c-0.382,1.12,1.297,3.381,1.766,4.382C188.964,214.411,189.809,216.207,190.65,218.003z"/>
		<path d="M203.34,209.854c0.787-2.344-2.907-5.447-4.324-7.059c-1.863,5.138-3.73,10.275-5.621,15.404
			c-0.691,1.876-1.414,2.666-0.56,4.449c1.16,2.42,2.359,4.823,3.556,7.225c1.521-4.348,3.039-8.696,4.55-13.048
			C201.749,214.503,202.56,212.184,203.34,209.854z"/>
		<path d="M201.155,240.066c7.552-7.353,8.372-18.788,4.063-28.066c-1.885,5.324-3.77,10.651-5.655,15.976
			c-0.272,0.765-2.126,4.296-1.763,5.064C198.918,235.384,200.038,237.725,201.155,240.066z"/>
		<path d="M172.278,197.245c-0.395,1.579-0.771,3.188-0.899,4.816c0.095,0.189,0.927,0.413,1.111,0.496
			c3.188,1.42,6.374,2.843,9.562,4.263c-2.598-6.114-5.196-12.231-7.794-18.345C174.273,191.391,172.976,194.448,172.278,197.245z"
			/>
		<path d="M175.895,214.68c2.534,1.053,5.07,2.105,7.601,3.164c0.501,0.208,3.326,1.857,3.825,1.634
			c-0.768-1.83-1.536-3.657-2.304-5.487c-0.428-1.019-0.979-3.779-2.065-4.247c-3.993-1.72-7.986-3.443-11.98-5.163
			c-0.242,1.077-1.545,7.418-0.385,7.898C172.357,213.214,174.126,213.946,175.895,214.68z"/>
		<path d="M172.768,223.435c2.252,0.982,4.517,1.934,6.781,2.892c4.241,1.796,8.485,3.586,12.733,5.37
			c-0.979-2.5-1.956-4.997-2.974-7.481c-0.75-1.827-1.821-1.824-3.678-2.567c-5.074-2.035-10.135-4.094-15.199-6.157
			C170.674,217.624,170.5,222.447,172.768,223.435z"/>
		<path d="M196.651,242.067c-0.988-2.399-1.977-4.798-2.965-7.197c-0.324-0.786-4.189-1.775-4.938-2.09
			c-5.217-2.173-10.432-4.342-15.646-6.515C177.101,235.681,186.13,242.737,196.651,242.067z"/>
		<path d="M171.773,289.283c-2.512-2.164-5.762-4.174-7.677-6.928c1.619,7.469,3.234,14.936,4.853,22.405
			c2.05-3.452,4.101-6.9,6.15-10.349c0.116-0.196,0.75-0.958,0.713-1.2C174.613,291.765,173.193,290.504,171.773,289.283z"/>
		<path d="M177.869,295.312c-2.607,4.266-5.217,8.534-7.825,12.8c-0.709,1.159,0.606,4.122,0.878,5.361
			c0.493,2.228,0.985,4.455,1.478,6.68c0.612-0.122,2.172-3.544,2.503-4.073c1.674-2.677,3.354-5.349,5.037-8.017
			c1.175-1.863,2.35-3.728,3.525-5.588C184.243,301.251,178.811,296.162,177.869,295.312z"/>
		<path d="M175.433,321.067c-1.251,1.931-2.258,2.635-1.747,4.85c0.688,3.009,1.432,6.004,2.169,9.003
			c2.803-4.495,5.603-8.993,8.394-13.494c1.49-2.402,2.984-4.802,4.449-7.216c1.475-2.433-1.891-6.846-3.072-9.012
			C182.235,310.492,178.848,315.789,175.433,321.067z"/>
		<path d="M176.635,338.831c0.664,2.909,1.331,5.816,1.995,8.727c10.328-6.35,14.128-18.975,11.631-30.472
			c-3.458,5.502-6.916,11.004-10.371,16.506C179.389,334.382,176.418,337.879,176.635,338.831z"/>
		<path d="M157.015,292.232c-0.841,1.674-1.667,3.382-2.225,5.178c0.061,0.236,0.937,0.698,1.12,0.836
			c3.219,2.398,6.438,4.795,9.654,7.19c-1.374-7.519-2.751-15.033-4.125-22.549C160.729,286.165,158.502,289.268,157.015,292.232z"
			/>
		<path d="M151.28,308.903c1.802,1.268,3.602,2.534,5.401,3.804c2.58,1.818,5.159,3.639,7.732,5.466
			c0.508,0.36,3.265,2.922,3.88,2.797c-0.401-2.246-0.802-4.492-1.203-6.735c-0.224-1.252-0.147-4.489-1.249-5.288
			c-4.048-2.938-8.094-5.875-12.142-8.812C153.159,301.284,150.096,308.071,151.28,308.903z"/>
		<path d="M150.965,321.743c2.28,1.668,4.584,3.309,6.879,4.954c4.309,3.085,8.62,6.16,12.935,9.235
			c-0.468-3.051-0.937-6.102-1.454-9.144c-0.383-2.239-1.585-2.503-3.479-3.807c-5.18-3.559-10.343-7.147-15.505-10.737
			C150.081,314.696,148.667,320.063,150.965,321.743z"/>
		<path d="M166.543,336.257c-5.306-3.751-10.612-7.503-15.918-11.251c2.114,11.572,10.471,21.769,22.445,23.663
			c-0.505-2.941-1.01-5.882-1.515-8.822C171.394,338.883,167.306,336.799,166.543,336.257z"/>
		<path d="M224.025,301.624c-2.812-2.424-6.45-4.673-8.592-7.757c1.812,8.362,3.62,16.723,5.432,25.083
			c2.295-3.862,4.59-7.724,6.885-11.589c0.132-0.22,0.838-1.074,0.799-1.343C227.205,304.402,225.617,302.992,224.025,301.624z"/>
		<path d="M230.85,308.371c-2.919,4.777-5.842,9.554-8.761,14.33c-0.796,1.298,0.676,4.614,0.985,6.001
			c0.551,2.494,1.105,4.987,1.656,7.481c0.686-0.138,2.433-3.969,2.803-4.56c1.876-2.995,3.758-5.988,5.64-8.978
			c1.316-2.087,2.632-4.171,3.948-6.255C237.988,315.023,231.905,309.326,230.85,308.371z"/>
		<path d="M228.123,337.209c-1.398,2.163-2.528,2.949-1.958,5.432c0.771,3.369,1.604,6.723,2.43,10.079
			c3.137-5.033,6.273-10.07,9.397-15.11c1.667-2.689,3.341-5.373,4.981-8.081c1.649-2.724-2.118-7.665-3.439-10.089
			C235.742,325.37,231.948,331.3,228.123,337.209z"/>
		<path d="M229.473,357.099c0.743,3.256,1.487,6.515,2.233,9.771c11.564-7.108,15.817-21.245,13.021-34.115
			c-3.871,6.159-7.742,12.319-11.613,18.479C232.557,352.117,229.228,356.031,229.473,357.099z"/>
		<path d="M207.501,304.926c-0.942,1.873-1.866,3.788-2.491,5.796c0.067,0.266,1.05,0.78,1.255,0.933
			c3.602,2.684,7.206,5.368,10.811,8.055c-1.539-8.415-3.078-16.83-4.621-25.248C211.66,298.133,209.169,301.608,207.501,304.926z"
			/>
		<path d="M201.082,323.592c2.017,1.42,4.033,2.837,6.05,4.26c2.889,2.034,5.777,4.072,8.657,6.12
			c0.569,0.403,3.654,3.271,4.342,3.133c-0.447-2.512-0.896-5.027-1.347-7.543c-0.251-1.398-0.165-5.027-1.398-5.921
			c-4.532-3.289-9.063-6.576-13.592-9.865C203.187,315.063,199.757,322.661,201.082,323.592z"/>
		<path d="M200.73,337.968c2.552,1.869,5.131,3.706,7.702,5.548c4.823,3.451,9.651,6.897,14.483,10.34
			c-0.523-3.415-1.047-6.833-1.628-10.239c-0.429-2.509-1.775-2.803-3.896-4.263c-5.802-3.987-11.579-8.002-17.359-12.022
			C199.742,330.079,198.16,336.089,200.73,337.968z"/>
		<path d="M218.172,354.216c-5.939-4.201-11.882-8.399-17.821-12.598c2.368,12.956,11.723,24.37,25.132,26.493
			c-0.566-3.292-1.132-6.585-1.695-9.877C223.6,357.157,219.025,354.822,218.172,354.216z"/>
		<path d="M252.857,114.75c0.049-0.153,0.367-0.774,0.306-0.934c-1.047-0.805-2.212-1.45-3.375-2.068
			c-2.056-1.099-4.59-1.974-6.328-3.568c2.258,4.872,4.517,9.74,6.775,14.611C251.11,120.111,251.982,117.434,252.857,114.75z"/>
		<path d="M254.971,132.813c0.401-0.177,0.946-2.766,1.09-3.179c0.737-2.093,1.478-4.183,2.221-6.273
			c0.517-1.459,1.038-2.917,1.558-4.373c0.343-0.958-4.165-3.611-4.942-4.048c-1.132,3.326-2.261,6.652-3.394,9.979
			c-0.309,0.902,1.05,2.732,1.429,3.54C253.61,129.912,254.289,131.363,254.971,132.813z"/>
		<path d="M265.226,126.231c0.636-1.894-2.35-4.403-3.495-5.704c-1.505,4.152-3.014,8.305-4.544,12.448
			c-0.56,1.518-1.142,2.154-0.453,3.596c0.937,1.955,1.906,3.896,2.874,5.835c1.23-3.513,2.457-7.029,3.678-10.542
			C263.937,129.985,264.595,128.113,265.226,126.231z"/>
		<path d="M263.457,150.644c6.102-5.942,6.766-15.184,3.284-22.678c-1.524,4.303-3.048,8.608-4.569,12.91
			c-0.22,0.618-1.72,3.473-1.423,4.091C261.651,146.858,262.554,148.75,263.457,150.644z"/>
		<path d="M240.125,116.041c-0.318,1.276-0.625,2.577-0.729,3.893c0.077,0.153,0.75,0.333,0.896,0.401
			c2.577,1.147,5.15,2.295,7.727,3.445c-2.099-4.942-4.198-9.88-6.297-14.823C241.737,111.311,240.69,113.78,240.125,116.041z"/>
		<path d="M243.05,130.129c2.047,0.851,4.097,1.702,6.141,2.558c0.404,0.168,2.687,1.5,3.091,1.322
			c-0.621-1.478-1.242-2.956-1.86-4.434c-0.346-0.823-0.793-3.054-1.671-3.434c-3.225-1.389-6.454-2.781-9.679-4.17
			c-0.196,0.869-1.249,5.994-0.309,6.383C240.188,128.945,241.618,129.539,243.05,130.129z"/>
		<path d="M240.519,137.204c1.821,0.792,3.65,1.563,5.478,2.338c3.427,1.45,6.857,2.898,10.288,4.339
			c-0.79-2.02-1.579-4.039-2.405-6.043c-0.606-1.478-1.472-1.472-2.971-2.075c-4.101-1.643-8.191-3.308-12.28-4.976
			C238.83,132.51,238.686,136.405,240.519,137.204z"/>
		<path d="M259.818,152.259c-0.798-1.937-1.597-3.877-2.396-5.814c-0.26-0.637-3.384-1.435-3.99-1.689
			c-4.213-1.756-8.43-3.51-12.644-5.263C244.02,147.1,251.318,152.801,259.818,152.259z"/>
		<path d="M263.038,0c1.355,2.922,2.708,5.845,4.063,8.764c0.523-1.609,1.05-3.216,1.573-4.822c0.03-0.092,0.22-0.465,0.184-0.56
			c-0.627-0.484-1.328-0.869-2.023-1.243C265.602,1.484,264.081,0.958,263.038,0z"/>
		<path d="M269.898,4.058c-0.679,1.995-1.358,3.99-2.035,5.985c-0.184,0.542,0.63,1.64,0.857,2.124
			c0.407,0.869,0.817,1.741,1.224,2.61c0.242-0.107,0.566-1.658,0.655-1.906c0.441-1.254,0.888-2.509,1.332-3.761
			c0.309-0.875,0.621-1.75,0.933-2.625C273.068,5.912,270.363,4.317,269.898,4.058z"/>
		<path d="M276.095,10.826c0.382-1.135-1.411-2.641-2.096-3.421c-0.903,2.491-1.809,4.981-2.727,7.466
			c-0.336,0.909-0.686,1.291-0.272,2.157c0.56,1.172,1.142,2.338,1.723,3.5c0.737-2.108,1.472-4.217,2.206-6.325
			C275.32,13.082,275.715,11.955,276.095,10.826z"/>
		<path d="M277.003,11.867c-0.915,2.583-1.827,5.162-2.742,7.745c-0.132,0.37-1.031,2.084-0.854,2.454
			c0.542,1.135,1.083,2.271,1.625,3.406C278.696,21.906,279.09,16.365,277.003,11.867z"/>
		<path d="M261.036,4.715c-0.189,0.765-0.373,1.545-0.438,2.335c0.046,0.092,0.45,0.199,0.539,0.239
			c1.545,0.688,3.091,1.377,4.636,2.065c-1.261-2.965-2.519-5.927-3.779-8.893C262.003,1.879,261.376,3.36,261.036,4.715z"/>
		<path d="M260.219,12.102c0.857,0.355,1.714,0.71,2.574,1.065c1.227,0.511,2.457,1.019,3.684,1.533
			c0.242,0.101,1.613,0.899,1.854,0.792c-0.374-0.887-0.744-1.772-1.117-2.659c-0.208-0.493-0.474-1.833-1-2.059
			c-1.934-0.835-3.871-1.668-5.805-2.503C260.287,8.794,259.656,11.87,260.219,12.102z"/>
		<path d="M269.289,17.791c-0.364-0.887-0.884-0.884-1.784-1.245c-2.46-0.985-4.915-1.983-7.366-2.983
			c0.12,1.031,0.034,3.369,1.132,3.849c1.092,0.475,2.191,0.937,3.287,1.401c2.056,0.869,4.112,1.738,6.172,2.604
			C270.256,20.205,269.785,18.993,269.289,17.791z"/>
		<path d="M269.02,21.94c-2.528-1.052-5.055-2.105-7.586-3.158c1.937,4.562,6.316,7.983,11.414,7.659
			c-0.48-1.163-0.958-2.326-1.438-3.488C271.257,22.57,269.384,22.093,269.02,21.94z"/>
		<path d="M232.933,37.255c-0.759-0.22-1.551-0.328-2.338-0.419c-1.389-0.165-2.996-0.101-4.314-0.612
			c2.326,2.228,4.648,4.458,6.974,6.686c-0.095-1.689-0.192-3.378-0.288-5.064C232.961,37.748,233,37.332,232.933,37.255z"/>
		<path d="M237.875,41.472c-0.027-0.927-0.058-1.854-0.085-2.782c-0.019-0.609-3.115-1.107-3.645-1.184
			c0.095,2.105,0.187,4.21,0.282,6.316c0.024,0.572,1.181,1.297,1.57,1.667c0.697,0.661,1.395,1.325,2.09,1.986
			c0.187-0.187-0.077-1.75-0.086-2.013C237.958,44.131,237.915,42.803,237.875,41.472z"/>
		<path d="M239.895,49.189c0.948,0.887,1.916,1.763,2.879,2.635c-0.08-2.231-0.159-4.462-0.245-6.692
			c-0.046-1.19-0.088-2.381-0.146-3.571c-0.058-1.196-2.274-1.946-3.198-2.423c0.064,2.65,0.128,5.297,0.177,7.947
			C239.381,48.051,239.194,48.535,239.895,49.189z"/>
		<path d="M243.87,50.407c0.012,0.395-0.202,2.316,0.098,2.598c0.918,0.86,1.836,1.72,2.754,2.58
			c2.111-4.651,0.468-9.96-3.115-13.388C243.695,44.933,243.781,47.672,243.87,50.407z"/>
		<path d="M226.131,41.344c0.101,0.783,0.214,1.576,0.441,2.332c0.076,0.067,0.492,0.024,0.587,0.027
			c1.689,0.08,3.378,0.159,5.067,0.239c-2.252-2.304-4.504-4.605-6.753-6.909C226.002,38.348,225.954,39.958,226.131,41.344z"/>
		<path d="M233.157,45.104c-2.105-0.074-4.214-0.147-6.319-0.221c0.08,0.529,0.609,3.623,1.218,3.635
			c0.927,0.019,1.854,0.037,2.785,0.055c1.331,0.028,2.659,0.055,3.99,0.089c0.263,0.006,1.83,0.251,2.013,0.064
			c-0.67-0.692-1.337-1.38-2.007-2.072C234.466,46.276,233.729,45.126,233.157,45.104z"/>
		<path d="M236.461,50.009c-2.65-0.024-5.3-0.061-7.947-0.101c0.486,0.918,1.258,3.127,2.457,3.173
			c1.19,0.046,2.381,0.077,3.571,0.11c2.23,0.064,4.464,0.123,6.695,0.181c-0.881-0.955-1.766-1.913-2.663-2.852
			C237.912,49.826,237.432,50.019,236.461,50.009z"/>
		<path d="M245.039,57.283c-0.869-0.909-1.738-1.818-2.607-2.727c-0.285-0.297-2.203-0.064-2.598-0.073
			c-2.739-0.062-5.474-0.123-8.213-0.184C235.087,57.846,240.409,59.44,245.039,57.283z"/>
		<path d="M217.303,55.808c-0.759-0.22-1.551-0.328-2.338-0.419c-1.389-0.165-2.996-0.101-4.314-0.612
			c2.326,2.228,4.648,4.458,6.974,6.686c-0.095-1.689-0.193-3.378-0.288-5.064C217.331,56.301,217.37,55.885,217.303,55.808z"/>
		<path d="M222.245,60.025c-0.027-0.927-0.055-1.854-0.083-2.782c-0.019-0.609-3.115-1.107-3.645-1.184
			c0.095,2.105,0.187,4.21,0.282,6.316c0.024,0.572,1.181,1.297,1.57,1.667c0.697,0.661,1.395,1.325,2.09,1.986
			c0.187-0.187-0.077-1.75-0.086-2.013C222.327,62.684,222.285,61.356,222.245,60.025z"/>
		<path d="M223.732,65.634c0.018,0.97-0.168,1.454,0.532,2.108c0.949,0.887,1.916,1.763,2.88,2.635
			c-0.08-2.231-0.163-4.461-0.245-6.692c-0.046-1.19-0.089-2.381-0.144-3.571c-0.058-1.197-2.274-1.946-3.198-2.424
			C223.619,60.337,223.683,62.984,223.732,65.634z"/>
		<path d="M227.976,60.75c0.089,2.736,0.174,5.475,0.263,8.21c0.012,0.395-0.202,2.316,0.098,2.598
			c0.918,0.86,1.836,1.72,2.754,2.58C233.203,69.486,231.556,64.177,227.976,60.75z"/>
		<path d="M210.503,59.896c0.101,0.783,0.214,1.576,0.444,2.332c0.077,0.067,0.493,0.024,0.587,0.028
			c1.689,0.079,3.378,0.159,5.067,0.238c-2.252-2.304-4.504-4.605-6.753-6.909C210.372,56.9,210.323,58.51,210.503,59.896z"/>
		<path d="M217.526,63.657c-2.105-0.074-4.214-0.147-6.319-0.221c0.079,0.53,0.609,3.623,1.218,3.636
			c0.927,0.018,1.857,0.037,2.785,0.055c1.331,0.028,2.659,0.055,3.99,0.089c0.263,0.006,1.83,0.251,2.013,0.064
			c-0.67-0.692-1.34-1.38-2.007-2.072C218.836,64.829,218.099,63.679,217.526,63.657z"/>
		<path d="M220.831,68.562c-2.65-0.025-5.297-0.062-7.947-0.101c0.486,0.918,1.257,3.127,2.457,3.173
			c1.19,0.046,2.381,0.077,3.571,0.11c2.23,0.064,4.464,0.123,6.695,0.181c-0.881-0.955-1.766-1.913-2.663-2.852
			C222.285,68.379,221.801,68.571,220.831,68.562z"/>
		<path d="M224.203,73.036c-2.739-0.062-5.474-0.123-8.213-0.184c3.467,3.546,8.788,5.141,13.418,2.98
			c-0.869-0.909-1.738-1.818-2.607-2.727C226.517,72.81,224.598,73.045,224.203,73.036z"/>
		<path d="M262.738,40.75c0.655-1.934,1.31-3.871,1.964-5.805c0.037-0.11,0.272-0.557,0.229-0.673
			c-0.75-0.591-1.591-1.068-2.426-1.527c-1.481-0.811-3.311-1.466-4.557-2.635C259.543,33.654,261.14,37.2,262.738,40.75z"/>
		<path d="M266.905,45.753c0.551-1.512,1.105-3.02,1.659-4.525c0.389-1.053,0.774-2.105,1.163-3.155
			c0.254-0.691-2.989-2.65-3.549-2.974c-0.845,2.402-1.692,4.801-2.54,7.203c-0.229,0.652,0.737,1.989,1.007,2.577
			c0.48,1.056,0.964,2.114,1.444,3.17C266.382,47.919,266.795,46.053,266.905,45.753z"/>
		<path d="M273.573,43.357c0.477-1.368-1.668-3.207-2.485-4.162c-1.123,2.996-2.249,5.992-3.391,8.981
			c-0.416,1.095-0.844,1.551-0.355,2.601c0.664,1.426,1.35,2.837,2.035,4.253c0.918-2.537,1.836-5.07,2.748-7.61
			C272.609,46.071,273.099,44.719,273.573,43.357z"/>
		<path d="M274.656,44.627c-1.138,3.106-2.276,6.212-3.415,9.318c-0.166,0.447-1.273,2.503-1.065,2.953
			c0.639,1.377,1.279,2.757,1.918,4.134C276.566,56.775,277.12,50.086,274.656,44.627z"/>
		<path d="M255.467,35.777c-0.242,0.921-0.471,1.86-0.557,2.812c0.055,0.11,0.542,0.248,0.646,0.297
			c1.857,0.854,3.715,1.705,5.569,2.558c-1.481-3.595-2.965-7.194-4.446-10.79C256.673,32.362,255.896,34.144,255.467,35.777z"/>
		<path d="M254.381,44.685c1.031,0.44,2.062,0.881,3.094,1.322c1.478,0.63,2.956,1.264,4.431,1.903
			c0.291,0.125,1.934,1.108,2.228,0.982c-0.438-1.074-0.875-2.151-1.313-3.225c-0.245-0.6-0.551-2.219-1.181-2.5
			c-2.326-1.035-4.654-2.066-6.98-3.1C254.506,40.692,253.702,44.397,254.381,44.685z"/>
		<path d="M254.265,46.448c0.131,1.249-0.003,4.07,1.319,4.664c1.312,0.59,2.631,1.163,3.95,1.738
			c2.473,1.08,4.945,2.154,7.421,3.229c-0.557-1.469-1.114-2.938-1.695-4.4c-0.429-1.074-1.056-1.08-2.136-1.527
			C260.167,48.926,257.217,47.69,254.265,46.448z"/>
		<path d="M264.88,56.687c-3.039-1.307-6.081-2.61-9.119-3.917c2.28,5.539,7.521,9.728,13.688,9.403
			c-0.563-1.411-1.126-2.821-1.689-4.232C267.572,57.479,265.317,56.876,264.88,56.687z"/>
		<path d="M228.23,92.862c-0.245-0.924-0.63-1.812-1.022-2.678c-0.695-1.539-1.766-3.161-2.056-4.847
			c-0.857,3.795-1.71,7.589-2.567,11.383c1.686-1.153,3.372-2.304,5.061-3.458C227.741,93.195,228.196,92.981,228.23,92.862z"/>
		<path d="M226.951,100.604c0.942-0.609,1.885-1.215,2.827-1.824c0.621-0.398-0.795-3.914-1.049-4.51
			c-2.121,1.41-4.238,2.821-6.359,4.232c-0.575,0.382-0.606,2.032-0.744,2.662c-0.251,1.135-0.502,2.267-0.75,3.403
			c0.309,0.076,1.766-1.169,2.032-1.344C224.252,102.348,225.602,101.476,226.951,100.604z"/>
		<path d="M230.188,100.5c-2.699,1.72-5.401,3.437-8.109,5.141c-0.992,0.625-1.606,0.731-1.848,1.864
			c-0.328,1.536-0.627,3.078-0.931,4.621c2.258-1.475,4.517-2.95,6.772-4.431c1.203-0.789,2.408-1.576,3.602-2.377
			C230.877,104.511,230.268,101.754,230.188,100.5z"/>
		<path d="M229.775,106.983c-2.775,1.799-5.554,3.596-8.329,5.395c-0.401,0.257-2.521,1.233-2.625,1.72
			c-0.318,1.484-0.634,2.971-0.952,4.456C224.001,117.84,228.462,112.828,229.775,106.983z"/>
		<path d="M223.812,85.013c-1.031,1.362-2.727,2.316-4.048,3.366c-0.747,0.59-1.497,1.203-2.139,1.913
			c-0.024,0.122,0.285,0.523,0.34,0.627c0.97,1.796,1.943,3.596,2.913,5.392C221.856,92.541,222.832,88.776,223.812,85.013z"/>
		<path d="M213.536,94.845c0.56,0.97,1.12,1.943,1.677,2.916c0.802,1.393,1.6,2.788,2.396,4.183c0.159,0.275,0.881,2.05,1.19,2.124
			c0.297-1.123,0.593-2.246,0.89-3.369c0.166-0.624,0.894-2.105,0.557-2.708c-1.239-2.225-2.476-4.449-3.715-6.674
			C216.039,91.729,213.169,94.205,213.536,94.845z"/>
		<path d="M218.031,106.971c0.303-1.117-0.193-1.496-0.79-2.503c-1.628-2.754-3.241-5.52-4.853-8.283
			c-0.646,1.077-2.448,3.252-1.75,4.52c0.694,1.261,1.404,2.509,2.111,3.764c1.328,2.347,2.656,4.694,3.99,7.038
			C217.177,109.995,217.618,108.486,218.031,106.971z"/>
		<path d="M215.066,117.877c0.398-1.465,0.796-2.931,1.193-4.397c0.132-0.48-1.31-2.319-1.545-2.732
			c-1.643-2.871-3.289-5.741-4.933-8.611C208.273,107.932,209.943,114.432,215.066,117.877z"/>
		<path d="M147.553,181.987c0.052-0.156,0.376-0.792,0.312-0.955c-1.071-0.823-2.264-1.484-3.455-2.118
			c-2.105-1.123-4.7-2.02-6.481-3.654c2.313,4.988,4.624,9.976,6.937,14.963C145.763,187.477,146.657,184.732,147.553,181.987z"/>
		<path d="M149.717,200.482c0.41-0.184,0.967-2.831,1.117-3.253c0.753-2.142,1.512-4.284,2.273-6.423
			c0.533-1.493,1.062-2.986,1.594-4.477c0.349-0.979-4.266-3.697-5.061-4.146c-1.157,3.406-2.316,6.812-3.476,10.217
			c-0.315,0.927,1.074,2.797,1.462,3.623C148.321,197.511,149.019,198.998,149.717,200.482z"/>
		<path d="M160.215,193.741c0.652-1.94-2.405-4.507-3.577-5.841c-1.542,4.25-3.084,8.503-4.651,12.745
			c-0.572,1.555-1.169,2.207-0.462,3.681c0.958,2.004,1.949,3.99,2.941,5.976c1.257-3.598,2.515-7.197,3.764-10.795
			C158.896,197.587,159.57,195.668,160.215,193.741z"/>
		<path d="M158.407,218.738c6.249-6.086,6.924-15.548,3.36-23.222c-1.561,4.406-3.122,8.812-4.679,13.219
			c-0.224,0.633-1.76,3.556-1.457,4.192C156.556,214.864,157.483,216.801,158.407,218.738z"/>
		<path d="M134.515,183.309c-0.328,1.307-0.637,2.638-0.747,3.984c0.08,0.156,0.768,0.343,0.918,0.41
			c2.638,1.175,5.275,2.35,7.91,3.528c-2.151-5.061-4.299-10.119-6.451-15.178C136.167,178.465,135.093,180.993,134.515,183.309z"/>
		<path d="M137.507,197.734c2.096,0.869,4.195,1.741,6.288,2.62c0.413,0.174,2.751,1.536,3.164,1.353
			c-0.636-1.512-1.27-3.026-1.906-4.538c-0.355-0.842-0.811-3.127-1.71-3.516c-3.305-1.423-6.61-2.849-9.912-4.271
			c-0.199,0.89-1.279,6.138-0.318,6.536C134.582,196.519,136.044,197.128,137.507,197.734z"/>
		<path d="M134.918,204.977c1.863,0.811,3.739,1.601,5.609,2.393c3.51,1.487,7.023,2.965,10.536,4.443
			c-0.811-2.068-1.619-4.137-2.463-6.19c-0.621-1.512-1.508-1.508-3.042-2.124c-4.198-1.683-8.388-3.387-12.577-5.095
			C133.189,200.17,133.042,204.16,134.918,204.977z"/>
		<path d="M154.68,220.394c-0.817-1.986-1.634-3.969-2.454-5.955c-0.269-0.652-3.464-1.469-4.085-1.729
			c-4.314-1.796-8.632-3.592-12.947-5.392C138.505,215.109,145.974,220.95,154.68,220.394z"/>
		<path d="M89.826,210.568c-0.101-0.113-0.462-0.676-0.621-0.692c-1.135,0.6-2.197,1.377-3.234,2.164
			c-1.839,1.389-3.718,3.317-5.814,4.195c5.003,0.095,10.006,0.187,15.012,0.281C93.388,214.533,91.607,212.551,89.826,210.568z"/>
		<path d="M101.023,216.568c1.493,0.021,2.989,0.04,4.483,0.061c0.04-0.447-1.818-2.083-2.087-2.399
			c-1.365-1.597-2.727-3.198-4.085-4.801c-0.948-1.117-1.897-2.237-2.846-3.354c-0.621-0.734-4.856,2.203-5.569,2.72
			c2.188,2.503,4.375,5.006,6.563,7.509C98.079,216.987,100.19,216.556,101.023,216.568z"/>
		<path d="M109.374,216.679c2.022,0.012,4.048-0.016,6.071-0.04c-2.295-2.674-4.593-5.349-6.895-8.017
			c-1.227-1.423-2.451-2.852-3.693-4.26c-1.249-1.419-4.664,0.196-6.249,0.664c2.687,3.21,5.376,6.423,8.045,9.651
			C107.632,215.858,107.883,216.669,109.374,216.679z"/>
		<path d="M118.055,216.733c1.956,0.012,3.911,0.024,5.866,0.037c-2.032-8.198-9.25-12.889-16.956-13.027
			c2.803,3.293,5.606,6.588,8.412,9.881C115.781,214.099,117.415,216.728,118.055,216.733z"/>
		<path d="M85.025,222.759c0.894,0.856,1.812,1.708,2.834,2.387c0.159-0.003,0.618-0.536,0.737-0.643
			c2.118-1.842,4.238-3.684,6.355-5.526c-4.988-0.27-9.976-0.539-14.963-0.808C81.913,219.194,83.443,221.241,85.025,222.759z"/>
		<path d="M97.213,219.356c-2.616,2.329-5.229,4.657-7.846,6.986c0.618,0.563,4.306,3.792,5.052,3.106
			c1.138-1.043,2.276-2.087,3.418-3.127c1.634-1.493,3.268-2.986,4.905-4.474c0.324-0.293,2.457-1.79,2.497-2.234
			c-1.487-0.088-2.978-0.174-4.465-0.263C99.949,219.301,97.926,218.723,97.213,219.356z"/>
		<path d="M106.038,221.639c-3.222,3.014-6.459,6.01-9.694,9.006c1.493,0.578,4.599,2.433,6.092,1.114
			c1.481-1.31,2.95-2.641,4.422-3.966c2.757-2.485,5.511-4.976,8.262-7.47c-2.007-0.171-4.015-0.346-6.025-0.48
			C107.611,219.745,107.216,220.537,106.038,221.639z"/>
		<path d="M104.422,232.523c7.681,0.417,15.676-3.721,19.144-11.716c-1.946-0.129-3.889-0.257-5.835-0.386
			c-0.637-0.043-2.724,2.454-3.207,2.895C111.154,226.385,107.789,229.454,104.422,232.523z"/>
		<path d="M183.312,78.868c0.037-0.11,0.266-0.56,0.22-0.676c-0.759-0.581-1.604-1.049-2.445-1.499
			c-1.49-0.796-3.326-1.429-4.584-2.586c1.637,3.528,3.271,7.06,4.908,10.587C182.045,82.751,182.679,80.812,183.312,78.868z"/>
		<path d="M184.787,79.006c-0.82,2.412-1.64,4.82-2.46,7.231c-0.224,0.655,0.759,1.98,1.034,2.564
			c0.493,1.049,0.985,2.102,1.481,3.155c0.291-0.129,0.686-2.004,0.79-2.301c0.532-1.518,1.071-3.029,1.609-4.544
			c0.376-1.056,0.753-2.111,1.129-3.167C188.618,81.246,185.35,79.324,184.787,79.006z"/>
		<path d="M186.122,94.676c0.679,1.417,1.38,2.824,2.081,4.229c0.891-2.546,1.781-5.092,2.666-7.641
			c0.471-1.359,0.948-2.718,1.404-4.083c0.462-1.374-1.701-3.188-2.531-4.134c-1.092,3.008-2.185,6.016-3.292,9.018
			C186.045,93.171,185.623,93.633,186.122,94.676z"/>
		<path d="M193.371,88.443c-1.104,3.118-2.209,6.236-3.311,9.354c-0.159,0.45-1.246,2.516-1.031,2.965
			c0.655,1.371,1.31,2.742,1.965,4.112C195.415,100.567,195.895,93.875,193.371,88.443z"/>
		<path d="M179.806,85.408c-1.521-3.581-3.042-7.161-4.562-10.741c0.012,1.708-0.747,3.498-1.157,5.135
			c-0.229,0.924-0.45,1.866-0.526,2.818c0.055,0.11,0.545,0.242,0.649,0.291C176.075,83.743,177.939,84.575,179.806,85.408z"/>
		<path d="M176.204,90.013c1.484,0.615,2.968,1.233,4.452,1.854c0.294,0.123,1.946,1.086,2.24,0.958
			c-0.45-1.071-0.899-2.142-1.349-3.213c-0.251-0.597-0.576-2.212-1.209-2.488c-2.338-1.006-4.675-2.017-7.013-3.023
			c-0.141,0.63-0.906,4.342-0.224,4.624C174.132,89.153,175.169,89.582,176.204,90.013z"/>
		<path d="M173.003,90.487c0.144,1.248,0.042,4.07,1.371,4.648c1.319,0.575,2.647,1.132,3.969,1.692
			c2.485,1.052,4.97,2.099,7.454,3.146c-0.572-1.462-1.144-2.925-1.741-4.379c-0.441-1.071-1.068-1.068-2.154-1.502
			C178.93,92.901,175.965,91.696,173.003,90.487z"/>
		<path d="M188.355,106.044c-0.578-1.404-1.156-2.809-1.735-4.213c-0.189-0.459-2.451-1.041-2.892-1.224
			c-3.054-1.273-6.108-2.543-9.162-3.816C176.908,102.308,182.195,106.439,188.355,106.044z"/>
		<path d="M131.531,147.008c-0.107-0.046-0.535-0.309-0.655-0.275c-0.643,0.707-1.178,1.512-1.695,2.313
			c-0.915,1.42-1.699,3.198-2.953,4.357c3.65-1.343,7.301-2.684,10.955-4.027C135.298,148.59,133.413,147.801,131.531,147.008z"/>
		<path d="M141.436,147.771c1.089-0.407,2.176-0.811,3.265-1.218c-0.104-0.3-1.94-0.845-2.23-0.977
			c-1.469-0.655-2.932-1.315-4.397-1.974c-1.022-0.462-2.044-0.921-3.066-1.383c-0.67-0.303-2.855,2.793-3.216,3.329
			c2.335,1.013,4.669,2.029,7.004,3.042C139.429,148.869,140.831,147.997,141.436,147.771z"/>
		<path d="M147.517,145.5c1.469-0.56,2.925-1.145,4.385-1.729c-2.463-1.096-4.93-2.191-7.396-3.28
			c-1.316-0.582-2.631-1.166-3.954-1.735c-1.331-0.572-3.317,1.435-4.327,2.185c2.91,1.334,5.817,2.668,8.721,4.018
			C146.008,145.457,146.433,145.913,147.517,145.5z"/>
		<path d="M153.817,143.104c1.42-0.542,2.84-1.081,4.26-1.622c-3.929-4.758-10.563-5.783-16.182-3.715
			c3.018,1.356,6.035,2.711,9.052,4.064C151.381,142.027,153.352,143.278,153.817,143.104z"/>
		<path d="M131.708,156.28c0.903,0.306,1.824,0.603,2.766,0.756c0.116-0.046,0.285-0.523,0.343-0.625
			c0.982-1.793,1.964-3.583,2.947-5.376c-3.693,1.224-7.384,2.448-11.077,3.669C128.385,154.836,130.108,155.739,131.708,156.28z"/>
		<path d="M139.515,150.65c-1.197,2.246-2.39,4.495-3.586,6.744c0.618,0.193,4.253,1.258,4.59,0.603
			c0.511-0.998,1.025-1.995,1.536-2.993c0.734-1.429,1.472-2.858,2.212-4.284c0.147-0.282,1.243-1.851,1.139-2.154
			c-1.105,0.361-2.207,0.722-3.311,1.08C141.476,149.851,139.839,150.041,139.515,150.65z"/>
		<path d="M146.589,149.662c-1.429,2.864-2.874,5.719-4.321,8.574c1.254-0.042,4.061,0.291,4.746-0.985
			c0.679-1.267,1.343-2.542,2.014-3.819c1.251-2.39,2.497-4.78,3.745-7.172c-1.505,0.45-3.011,0.902-4.507,1.377
			C147.158,147.991,147.112,148.615,146.589,149.662z"/>
		<path d="M154.686,145.592c-0.474,0.15-1.236,2.359-1.457,2.781c-1.518,2.941-3.036,5.878-4.55,8.819
			c5.686-1.882,10.236-6.814,10.349-12.986C157.581,144.667,156.133,145.129,154.686,145.592z"/>
		<path d="M115.506,169.368c0.046-0.107,0.309-0.535,0.275-0.655c-0.707-0.643-1.512-1.178-2.313-1.695
			c-1.42-0.915-3.198-1.698-4.357-2.953c1.34,3.65,2.684,7.301,4.027,10.955C113.924,173.135,114.713,171.253,115.506,169.368z"/>
		<path d="M114.744,179.273c0.407,1.089,0.811,2.176,1.218,3.265c0.3-0.104,0.844-1.94,0.976-2.231
			c0.655-1.469,1.316-2.931,1.974-4.397c0.462-1.022,0.921-2.044,1.383-3.066c0.303-0.67-2.794-2.854-3.33-3.216
			c-1.013,2.335-2.029,4.669-3.042,7.004C113.646,177.266,114.518,178.667,114.744,179.273z"/>
		<path d="M117.014,185.354c0.56,1.469,1.145,2.925,1.729,4.385c1.096-2.463,2.191-4.93,3.28-7.396
			c0.582-1.316,1.166-2.632,1.735-3.954c0.572-1.331-1.436-3.317-2.185-4.327c-1.334,2.91-2.668,5.817-4.018,8.721
			C117.057,183.845,116.601,184.27,117.014,185.354z"/>
		<path d="M119.414,191.657c0.542,1.42,1.08,2.84,1.622,4.26c4.758-3.929,5.787-10.563,3.715-16.181
			c-1.355,3.017-2.711,6.034-4.063,9.051C120.487,189.218,119.236,191.192,119.414,191.657z"/>
		<path d="M111.476,175.598c-1.224-3.694-2.448-7.384-3.669-11.078c-0.128,1.705-1.031,3.424-1.573,5.025
			c-0.306,0.903-0.603,1.824-0.756,2.766c0.046,0.116,0.523,0.285,0.625,0.343C107.893,173.637,109.686,174.616,111.476,175.598z"/>
		<path d="M107.51,179.891c1.429,0.734,2.858,1.472,4.284,2.212c0.282,0.147,1.852,1.242,2.154,1.138
			c-0.361-1.104-0.722-2.209-1.08-3.311c-0.202-0.615-0.392-2.252-1.004-2.577c-2.246-1.196-4.495-2.39-6.741-3.586
			c-0.192,0.618-1.257,4.253-0.603,4.59C105.515,178.866,106.513,179.38,107.51,179.891z"/>
		<path d="M105.264,184.852c1.267,0.679,2.542,1.346,3.819,2.013c2.39,1.251,4.78,2.497,7.172,3.746
			c-0.45-1.505-0.902-3.011-1.377-4.507c-0.352-1.102-0.976-1.151-2.022-1.674c-2.864-1.429-5.719-2.874-8.574-4.321
			C104.321,181.36,103.988,184.166,105.264,184.852z"/>
		<path d="M116.926,192.526c-0.153-0.474-2.359-1.236-2.782-1.457c-2.94-1.518-5.878-3.036-8.819-4.55
			c1.882,5.686,6.814,10.236,12.987,10.349C117.847,195.421,117.385,193.973,116.926,192.526z"/>
		<path d="M256.92,79.496c0.82-2.512,1.641-5.028,2.46-7.54c0.046-0.144,0.343-0.726,0.285-0.875
			c-0.979-0.752-2.075-1.358-3.164-1.94c-1.928-1.028-4.306-1.852-5.934-3.345C252.686,70.361,254.803,74.93,256.92,79.496z"/>
		<path d="M265.926,75.931c0.321-0.896-3.908-3.384-4.636-3.797c-1.062,3.118-2.121,6.239-3.183,9.357
			c-0.288,0.848,0.985,2.561,1.34,3.32c0.64,1.358,1.276,2.72,1.916,4.082c0.376-0.168,0.884-2.592,1.022-2.98
			c0.691-1.961,1.386-3.923,2.081-5.881C264.95,78.663,265.437,77.298,265.926,75.931z"/>
		<path d="M270.978,82.718c0.597-1.778-2.203-4.128-3.274-5.349c-1.414,3.892-2.824,7.784-4.26,11.671
			c-0.526,1.423-1.071,2.02-0.425,3.372c0.878,1.833,1.787,3.653,2.693,5.471c1.154-3.296,2.301-6.588,3.449-9.887
			C269.77,86.24,270.385,84.483,270.978,82.718z"/>
		<path d="M272.398,84.346c-1.429,4.036-2.858,8.069-4.284,12.105c-0.205,0.581-1.613,3.256-1.334,3.837
			c0.848,1.775,1.695,3.547,2.54,5.322C275.042,100.038,275.663,91.375,272.398,84.346z"/>
		<path d="M247.441,73.167c-0.3,1.197-0.584,2.415-0.683,3.647c0.074,0.144,0.704,0.312,0.842,0.374
			c2.414,1.077,4.829,2.154,7.243,3.228c-1.967-4.633-3.938-9.266-5.906-13.898C248.953,68.73,247.97,71.047,247.441,73.167z"/>
		<path d="M255.528,82.638c-3.026-1.304-6.05-2.607-9.076-3.911c-0.184,0.817-1.172,5.621-0.291,5.985
			c1.34,0.554,2.681,1.111,4.021,1.665c1.921,0.796,3.84,1.594,5.759,2.399c0.379,0.159,2.519,1.408,2.898,1.239
			c-0.582-1.386-1.163-2.772-1.744-4.155C256.771,85.083,256.352,82.993,255.528,82.638z"/>
		<path d="M257.554,91.656c-3.844-1.54-7.681-3.103-11.515-4.664c0.19,1.613,0.055,5.266,1.772,6.016
			c1.708,0.743,3.424,1.465,5.138,2.191c3.213,1.361,6.429,2.717,9.648,4.07c-0.741-1.895-1.481-3.789-2.255-5.667
			C259.772,92.216,258.961,92.219,257.554,91.656z"/>
		<path d="M263.662,101.671c-0.245-0.597-3.173-1.346-3.742-1.582c-3.954-1.646-7.904-3.29-11.854-4.936
			c3.029,7.133,9.872,12.481,17.843,11.971C265.158,105.307,264.412,103.489,263.662,101.671z"/>
		<path d="M171.4,149.365c-0.159-0.034-0.808-0.282-0.961-0.205c-0.688,1.126-1.209,2.353-1.701,3.574
			c-0.873,2.161-1.475,4.774-2.876,6.671c4.605-2.763,9.208-5.523,13.812-8.283C176.917,150.537,174.157,149.952,171.4,149.365z"/>
		<path d="M189.136,145.35c-0.221-0.379-2.849-0.646-3.274-0.746c-2.16-0.511-4.314-1.025-6.472-1.542
			c-1.506-0.361-3.008-0.722-4.514-1.086c-0.988-0.239-3.149,4.526-3.504,5.346c3.427,0.771,6.854,1.545,10.282,2.316
			c0.933,0.211,2.607-1.331,3.369-1.796C186.397,147.012,187.768,146.179,189.136,145.35z"/>
		<path d="M181.504,135.852c-1.952-0.432-4.128,2.803-5.303,4.079c4.287,1.059,8.577,2.118,12.858,3.198
			c1.567,0.395,2.261,0.906,3.623,0.067c1.845-1.139,3.672-2.307,5.499-3.476c-3.623-0.851-7.249-1.699-10.872-2.54
			C185.375,136.733,183.441,136.28,181.504,135.852z"/>
		<path d="M183.067,134.159c4.44,1.059,8.88,2.118,13.323,3.177c0.64,0.153,3.635,1.34,4.22,0.982
			c1.784-1.098,3.571-2.197,5.355-3.295C199.411,129.582,190.151,129.903,183.067,134.159z"/>
		<path d="M174.031,161.889c1.304,0.184,2.628,0.346,3.948,0.312c0.144-0.095,0.254-0.78,0.303-0.933
			c0.869-2.684,1.738-5.364,2.607-8.048c-4.691,2.61-9.382,5.223-14.073,7.833C169.157,160.788,171.724,161.568,174.031,161.889z"/>
		<path d="M186.418,161.941c0.438-1.484,0.875-2.968,1.312-4.453c0.627-2.126,1.258-4.253,1.891-6.38
			c0.125-0.419,1.206-2.831,0.985-3.213c-1.405,0.774-2.806,1.548-4.21,2.319c-0.78,0.431-2.953,1.111-3.234,2.022
			c-1.041,3.357-2.081,6.71-3.125,10.067C180.925,162.413,186.134,162.917,186.418,161.941z"/>
		<path d="M200.001,142.868c-1.925,1-3.85,1.998-5.756,3.033c-1.404,0.759-1.31,1.619-1.747,3.173
			c-1.2,4.25-2.424,8.495-3.645,12.739c1.689-0.382,5.582-0.651,6.181-2.558c0.597-1.894,1.166-3.794,1.744-5.694
			C197.856,149.998,198.931,146.433,200.001,142.868z"/>
		<path d="M202.431,141.467c-0.603,0.327-1.068,3.516-1.254,4.146c-1.297,4.375-2.598,8.754-3.896,13.13
			c7.222-4.018,12.121-11.879,10.679-20.276C206.115,139.469,204.273,140.466,202.431,141.467z"/>
		<path d="M151.69,115.05c-0.104-0.092-0.478-0.551-0.625-0.557c-0.985,0.542-1.891,1.233-2.772,1.928
			c-1.561,1.23-3.112,2.913-4.954,3.724c4.581-0.098,9.159-0.196,13.74-0.297C155.28,118.25,153.486,116.65,151.69,115.05z"/>
		<path d="M162.428,119.686c1.368-0.037,2.733-0.07,4.101-0.107c-0.003-0.376-1.839-1.683-2.111-1.94
			c-1.383-1.292-2.763-2.586-4.144-3.88c-0.96-0.903-1.925-1.808-2.885-2.714c-0.63-0.593-4.248,2.02-4.856,2.479
			c2.212,2.022,4.425,4.045,6.637,6.068C159.775,120.142,161.669,119.707,162.428,119.686z"/>
		<path d="M170.069,119.484c1.848-0.062,3.696-0.156,5.544-0.248c-2.326-2.164-4.651-4.324-6.983-6.481
			c-1.242-1.151-2.485-2.304-3.739-3.442c-1.264-1.145-4.244,0.33-5.655,0.78c2.729,2.598,5.459,5.196,8.176,7.809
			C168.407,118.856,168.707,119.53,170.069,119.484z"/>
		<path d="M178.003,119.221c1.787-0.058,3.574-0.12,5.364-0.178c-2.558-6.802-9.553-10.48-16.604-10.324
			c2.843,2.662,5.686,5.327,8.528,7.989C175.702,117.091,177.419,119.239,178.003,119.221z"/>
		<path d="M148.343,125.444c0.887,0.686,1.799,1.368,2.791,1.9c0.147-0.009,0.517-0.471,0.618-0.563
			c1.778-1.619,3.556-3.241,5.336-4.859c-4.581-0.049-9.162-0.098-13.739-0.147C145.197,122.565,146.767,124.229,148.343,125.444z"
			/>
		<path d="M157.498,130.723c0.952-0.915,1.903-1.83,2.855-2.745c1.365-1.31,2.729-2.62,4.101-3.926
			c0.269-0.257,2.093-1.588,2.09-1.961c-1.368-0.021-2.735-0.04-4.1-0.061c-0.762-0.012-2.659-0.425-3.253,0.131
			c-2.191,2.047-4.382,4.091-6.573,6.139C153.229,128.746,156.871,131.323,157.498,130.723z"/>
		<path d="M168.719,128.893c2.307-2.182,4.611-4.37,6.913-6.558c-1.848-0.073-3.697-0.147-5.548-0.189
			c-1.362-0.031-1.655,0.646-2.638,1.613c-2.687,2.641-5.389,5.269-8.091,7.897c1.414,0.432,4.41,1.876,5.661,0.719
			C166.259,131.225,167.486,130.056,168.719,128.893z"/>
		<path d="M178.021,122.323c-0.587-0.012-2.28,2.154-2.684,2.543c-2.815,2.693-5.627,5.389-8.439,8.082
			c7.05,0.077,14.006-3.675,16.49-10.505C181.599,122.403,179.809,122.363,178.021,122.323z"/>
		<path d="M206.905,179.062c-1.007,0.854-1.885,1.857-2.732,2.861c-1.505,1.778-2.898,4.073-4.823,5.435
			c5.239-1.181,10.475-2.362,15.713-3.54c-2.436-1.42-4.872-2.84-7.307-4.26C207.612,179.475,207.073,179.038,206.905,179.062z"/>
		<path d="M208.368,177.605c3.014,1.809,6.025,3.614,9.039,5.422c0.82,0.493,2.892-0.45,3.761-0.649
			c1.561-0.358,3.125-0.719,4.685-1.08c-0.089-0.432-2.503-1.506-2.876-1.735c-1.891-1.16-3.776-2.325-5.664-3.491
			c-1.316-0.814-2.632-1.628-3.947-2.445C212.505,173.092,208.958,176.938,208.368,177.605z"/>
		<path d="M215.268,172.101c3.742,2.347,7.481,4.697,11.212,7.065c1.365,0.866,1.863,1.57,3.418,1.199
			c2.108-0.501,4.21-1.04,6.31-1.579c-3.176-1.943-6.353-3.883-9.532-5.817c-1.695-1.031-3.391-2.068-5.098-3.081
			C219.861,168.866,216.78,171.256,215.268,172.101z"/>
		<path d="M223.594,168.771c3.886,2.396,7.769,4.792,11.655,7.188c0.56,0.346,3.033,2.411,3.7,2.255
			c2.041-0.483,4.079-0.97,6.12-1.454C240.546,169.542,231.654,166.947,223.594,168.771z"/>
		<path d="M210.559,193.016c1.665-2.277,3.329-4.55,4.997-6.827c-5.272,1.01-10.545,2.023-15.817,3.033
			c2.308,0.48,4.501,2.026,6.591,3.054c1.181,0.582,2.387,1.154,3.651,1.533C210.146,193.765,210.464,193.144,210.559,193.016z"/>
		<path d="M218.077,196.207c0.878-1.273,1.759-2.546,2.641-3.819c1.261-1.824,2.524-3.647,3.794-5.465
			c0.251-0.361,2.032-2.31,1.943-2.742c-1.576,0.294-3.152,0.591-4.725,0.884c-0.878,0.166-3.152,0.132-3.708,0.909
			c-2.041,2.861-4.079,5.722-6.12,8.583C212.713,194.931,217.499,197.042,218.077,196.207z"/>
		<path d="M227.098,196.351c1.16-1.613,2.298-3.241,3.439-4.862c2.142-3.045,4.278-6.093,6.411-9.144
			c-2.142,0.346-4.281,0.695-6.417,1.077c-1.573,0.282-1.75,1.129-2.653,2.466c-2.47,3.66-4.96,7.311-7.451,10.958
			C222.153,197.015,225.932,197.976,227.098,196.351z"/>
		<path d="M237.202,185.319c-2.604,3.749-5.208,7.5-7.812,11.249c8.118-1.555,15.23-7.485,16.494-15.909
			c-2.062,0.374-4.128,0.744-6.19,1.117C239.017,181.898,237.579,184.781,237.202,185.319z"/>
		<path d="M111.641,253.046c-0.688,1.126-1.209,2.354-1.698,3.574c-0.872,2.161-1.475,4.773-2.879,6.671
			c4.605-2.763,9.208-5.523,13.812-8.284c-2.757-0.584-5.514-1.172-8.274-1.756C112.443,253.218,111.794,252.967,111.641,253.046z"
			/>
		<path d="M126.228,251.728c1.371-0.829,2.742-1.662,4.113-2.491c-0.22-0.379-2.849-0.646-3.274-0.747
			c-2.16-0.511-4.314-1.025-6.472-1.542c-1.506-0.361-3.008-0.722-4.514-1.086c-0.988-0.239-3.149,4.525-3.504,5.346
			c3.427,0.771,6.854,1.545,10.282,2.316C123.789,253.732,125.466,252.19,126.228,251.728z"/>
		<path d="M133.884,247.083c1.845-1.138,3.672-2.307,5.499-3.476c-3.623-0.851-7.249-1.698-10.872-2.54
			c-1.934-0.45-3.868-0.902-5.805-1.331c-1.952-0.431-4.128,2.803-5.303,4.079c4.287,1.059,8.577,2.118,12.858,3.198
			C131.831,247.41,132.525,247.921,133.884,247.083z"/>
		<path d="M124.27,238.046c4.44,1.059,8.88,2.118,13.323,3.176c0.64,0.153,3.635,1.34,4.22,0.982
			c1.784-1.099,3.571-2.197,5.355-3.296C140.61,233.469,131.354,233.79,124.27,238.046z"/>
		<path d="M108.018,264.941c2.344-0.266,4.908,0.514,7.218,0.835c1.304,0.184,2.625,0.346,3.948,0.312
			c0.144-0.095,0.254-0.78,0.303-0.934c0.869-2.684,1.738-5.364,2.607-8.047C117.397,259.717,112.709,262.328,108.018,264.941z"/>
		<path d="M127.62,265.828c0.438-1.484,0.875-2.968,1.313-4.452c0.627-2.127,1.258-4.253,1.891-6.38
			c0.125-0.419,1.206-2.831,0.985-3.213c-1.405,0.774-2.806,1.548-4.21,2.319c-0.78,0.432-2.953,1.111-3.234,2.023
			c-1.041,3.357-2.081,6.71-3.125,10.067C122.127,266.296,127.336,266.801,127.62,265.828z"/>
		<path d="M136.234,263.142c0.597-1.894,1.166-3.794,1.744-5.695c1.08-3.562,2.154-7.126,3.225-10.691
			c-1.925,1-3.85,1.998-5.756,3.032c-1.404,0.759-1.31,1.619-1.747,3.173c-1.2,4.25-2.424,8.495-3.645,12.739
			C131.745,265.317,135.638,265.048,136.234,263.142z"/>
		<path d="M149.16,242.355c-1.842,1-3.684,1.998-5.529,2.999c-0.603,0.328-1.068,3.516-1.255,4.146
			c-1.3,4.376-2.598,8.755-3.895,13.13C145.705,258.61,150.601,250.751,149.16,242.355z"/>
		<path d="M162.076,499.202c2.726,0.07,5.493,0.101,8.201-0.281c0.275-0.227,0.339-1.668,0.404-1.995
			c1.163-5.729,2.326-11.457,3.492-17.186c-9.052,6.479-18.106,12.953-27.158,19.429C151.779,498.07,157.247,499.08,162.076,499.202
			z"/>
		<path d="M192.96,466.509c-2.711,1.922-5.422,3.844-8.133,5.763c-1.509,1.067-5.826,2.977-6.193,4.923
			c-1.362,7.154-2.721,14.312-4.082,21.47c1.848,0.006,12.693-0.172,13.057-2.25c0.551-3.16,1.108-6.318,1.662-9.479
			c0.796-4.528,1.598-9.055,2.408-13.583C191.837,472.461,193.502,467.24,192.96,466.509z"/>
		<path d="M199.986,461.543c-2.717,1.894-2.319,3.638-2.861,6.946c-1.478,9.036-3.005,18.066-4.532,27.096
			c3.394-1.178,11.343-2.649,12.133-6.717c0.787-4.039,1.518-8.09,2.261-12.139c1.393-7.589,2.772-15.181,4.146-22.775
			C207.404,456.463,203.673,458.97,199.986,461.543z"/>
		<path d="M215.807,450.493c-1.169,0.817-1.38,7.497-1.616,8.837c-1.656,9.318-3.305,18.639-4.958,27.96
			c13.945-9.961,22.197-27.302,17.265-44.261C222.933,445.518,219.372,448.005,215.807,450.493z"/>
		<path d="M153.725,474.016c-0.331-0.031-1.729-0.392-2.025-0.196c-1.157,2.479-1.934,5.135-2.666,7.764
			c-1.292,4.657-1.928,10.181-4.37,14.415c8.837-6.766,17.678-13.531,26.515-20.297
			C165.362,475.139,159.545,474.575,153.725,474.016z"/>
		<path d="M168.713,459.159c-3.185-0.392-6.368-0.787-9.55-1.182c-2.09-0.26-5.428,10.062-5.964,11.83
			c7.24,0.79,14.483,1.582,21.723,2.372c1.967,0.217,5.055-3.354,6.521-4.483c2.628-2.032,5.26-4.061,7.889-6.093
			c-0.542-0.734-6.022-0.667-6.925-0.776C177.841,460.282,173.275,459.722,168.713,459.159z"/>
		<path d="M161.415,453.455c9.082,1.178,18.164,2.356,27.237,3.583c3.32,0.45,4.875,1.341,7.479-0.703
			c3.537-2.775,7.025-5.612,10.517-8.446c-7.666-0.905-15.328-1.802-22.993-2.689c-4.088-0.471-8.177-0.954-12.271-1.386
			C167.263,443.382,163.536,450.555,161.415,453.455z"/>
		<path d="M211.32,444.432c3.421-2.681,6.845-5.361,10.267-8.039c-14.78-9.673-33.77-6.845-47.375,3.574
			c9.394,1.145,18.792,2.289,28.186,3.43C203.75,443.56,210.197,445.31,211.32,444.432z"/>
		<path d="M454.627,439.343c0.052,0.275,0.085,1.49,0.315,1.683c2.273,0.358,4.596,0.37,6.891,0.346
			c4.063-0.04,8.675-0.816,12.668,0.172c-7.527-5.566-15.052-11.133-22.579-16.702C452.822,429.679,453.724,434.511,454.627,439.343
			z"/>
		<path d="M443.06,418.421c-2.255-1.652-4.51-3.305-6.763-4.954c-0.465,0.609,0.866,5.021,0.989,5.774
			c0.621,3.819,1.235,7.635,1.845,11.453c0.426,2.666,0.848,5.331,1.27,7.993c0.278,1.75,9.395,2.044,10.949,2.065
			c-1.05-6.034-2.097-12.071-3.146-18.109C447.919,421.004,444.315,419.339,443.06,418.421z"/>
		<path d="M430.457,409.195c-3.066-2.212-6.172-4.37-9.275-6.533c1.056,6.404,2.114,12.807,3.186,19.208
			c0.572,3.415,1.133,6.83,1.741,10.238c0.609,3.431,7.273,4.773,10.113,5.812c-1.166-7.613-2.328-15.227-3.448-22.847
			C432.36,412.286,432.717,410.826,430.457,409.195z"/>
		<path d="M418.541,407.148c-0.181-1.133-0.272-6.751-1.242-7.451c-2.965-2.139-5.928-4.281-8.893-6.42
			c-4.373,14.195,2.335,28.89,13.93,37.451C421.071,422.867,419.807,415.006,418.541,407.148z"/>
		<path d="M470.897,420.162c-0.247-0.168-1.426,0.116-1.707,0.138c-4.902,0.395-9.802,0.79-14.703,1.185
			c7.344,5.808,14.685,11.612,22.028,17.421c-1.998-3.593-2.457-8.25-3.482-12.183C472.458,424.508,471.836,422.265,470.897,420.162
			z"/>
		<path d="M464.833,406.744c-2.681,0.291-5.364,0.578-8.048,0.866c-3.844,0.413-7.693,0.823-11.539,1.221
			c-0.763,0.08-5.367-0.049-5.833,0.561c2.186,1.744,4.37,3.485,6.552,5.229c1.218,0.97,3.764,4.012,5.422,3.858
			c6.099-0.569,12.201-1.139,18.299-1.704C469.263,415.275,466.595,406.555,464.833,406.744z"/>
		<path d="M440.046,405.56c7.646-0.911,15.3-1.78,22.953-2.649c-1.747-2.467-4.783-8.55-8.256-8.24
			c-3.449,0.306-6.892,0.657-10.337,1c-6.46,0.643-12.916,1.298-19.373,1.956c2.898,2.43,5.793,4.858,8.73,7.242
			C435.93,406.622,437.25,405.894,440.046,405.56z"/>
		<path d="M428.669,393.904c7.916-0.835,15.832-1.674,23.748-2.509c-11.303-8.941-27.236-11.573-39.792-3.636
			c2.843,2.298,5.686,4.6,8.525,6.897C422.084,395.41,427.531,394.023,428.669,393.904z"/>
		<path d="M535.726,364.577c0.181,0.215,0.812,1.252,1.108,1.307c2.151-0.816,4.177-1.958,6.156-3.115
			c3.51-2.047,7.13-5.009,11.087-6.129c-9.297-1.104-18.593-2.206-27.89-3.311C529.368,357.077,532.544,360.826,535.726,364.577z"/>
		<path d="M515.307,352.142c-2.775-0.315-5.554-0.634-8.329-0.948c-0.104,0.759,3.24,3.932,3.721,4.525
			c2.433,3.008,4.859,6.019,7.279,9.033c1.689,2.105,3.379,4.207,5.067,6.312c1.111,1.384,9.171-2.882,10.533-3.635
			c-3.905-4.722-7.807-9.443-11.711-14.168C520.809,351.977,516.852,352.316,515.307,352.142z"/>
		<path d="M499.79,350.379c-3.761-0.4-7.527-0.737-11.291-1.074c4.091,5.04,8.186,10.074,12.289,15.104
			c2.188,2.684,4.369,5.37,6.588,8.029c2.23,2.678,8.685,0.539,11.662,0.03c-4.786-6.034-9.572-12.068-14.324-18.13
			C502.972,352.12,502.559,350.673,499.79,350.379z"/>
		<path d="M483.651,348.65c-3.635-0.389-7.271-0.777-10.905-1.169c3.24,14.495,16.35,23.929,30.664,25.618
			c-4.994-6.199-9.991-12.396-14.984-18.593C487.706,353.616,484.841,348.778,483.651,348.65z"/>
		<path d="M545.458,344.495c-1.604-1.641-3.253-3.281-5.11-4.64c-0.297-0.024-1.182,0.808-1.414,0.964
			c-4.061,2.772-8.121,5.545-12.182,8.317c9.257,1.404,18.51,2.806,27.767,4.207C551.001,351.218,548.296,347.401,545.458,344.495z"
			/>
		<path d="M512.452,342.726c-0.621,0.447-4.685,2.617-4.788,3.379c2.76,0.432,5.522,0.859,8.283,1.291
			c1.536,0.238,5.26,1.619,6.622,0.661c5.015-3.516,10.03-7.035,15.049-10.554c-1.114-1.087-7.754-7.338-9.192-6.301
			c-2.185,1.582-4.373,3.161-6.561,4.743C518.731,338.213,515.594,340.474,512.452,342.726z"/>
		<path d="M506.314,342.466c6.19-4.584,12.402-9.131,18.62-13.682c-2.739-1.275-8.394-5.052-11.255-3.062
			c-2.843,1.977-5.658,3.99-8.482,5.994c-5.291,3.761-10.572,7.531-15.854,11.304c3.721,0.674,7.441,1.35,11.172,1.962
			C503.266,345.431,504.049,344.143,506.314,342.466z"/>
		<path d="M473.675,340.603c3.608,0.587,7.216,1.175,10.823,1.763c1.182,0.192,5.227-3.712,6.157-4.379
			c6.463-4.651,12.922-9.303,19.382-13.954C495.788,321.869,480.646,327.484,473.675,340.603z"/>
		<path d="M471.644,269.733c-2.151,1.974-5.288,3.06-7.831,4.416c-1.438,0.765-2.879,1.563-4.177,2.561
			c-0.076,0.199,0.315,0.964,0.377,1.154c1.083,3.317,2.163,6.634,3.246,9.951C466.053,281.786,468.85,275.761,471.644,269.733z"/>
		<path d="M456.05,296.284c0.181,0.512,0.851,3.712,1.35,3.933c0.841-1.797,1.686-3.593,2.527-5.386
			c0.468-0.997,2.148-3.263,1.766-4.382c-1.398-4.116-2.8-8.235-4.201-12.351c-0.961,0.542-6.539,3.825-6.117,5.009
			c0.643,1.802,1.285,3.608,1.928,5.41C454.223,291.107,455.138,293.695,456.05,296.284z"/>
		<path d="M455.214,304.864c0.854-1.783,0.132-2.57-0.56-4.449c-1.895-5.128-3.758-10.267-5.621-15.404
			c-1.417,1.61-5.11,4.715-4.324,7.059c0.78,2.329,1.595,4.648,2.399,6.971c1.512,4.352,3.029,8.7,4.55,13.048
			C452.856,309.685,454.055,307.285,455.214,304.864z"/>
		<path d="M450.249,315.257c0.367-0.769-1.49-4.3-1.763-5.064c-1.885-5.328-3.77-10.652-5.655-15.977
			c-4.309,9.278-3.488,20.71,4.064,28.066C448.011,319.938,449.131,317.598,450.249,315.257z"/>
		<path d="M476.671,284.277c-0.129-1.628-0.505-3.234-0.899-4.816c-0.701-2.797-1.995-5.854-1.974-8.773
			c-2.598,6.114-5.196,12.231-7.794,18.345c3.188-1.42,6.374-2.843,9.562-4.263C475.745,284.69,476.577,284.467,476.671,284.277z"/>
		<path d="M477.076,286.799c-3.993,1.719-7.987,3.441-11.98,5.162c-1.086,0.468-1.637,3.228-2.065,4.247
			c-0.768,1.83-1.536,3.656-2.304,5.486c0.498,0.221,3.323-1.426,3.824-1.634c2.531-1.062,5.068-2.114,7.602-3.164
			c1.769-0.734,3.537-1.466,5.306-2.197C478.624,294.216,477.317,287.875,477.076,286.799z"/>
		<path d="M477.624,297.71c-5.062,2.062-10.126,4.122-15.199,6.157c-1.854,0.743-2.926,0.737-3.679,2.567
			c-1.019,2.481-1.998,4.981-2.974,7.481c4.247-1.787,8.491-3.574,12.732-5.37c2.262-0.958,4.528-1.909,6.781-2.892
			C477.549,304.663,477.375,299.84,477.624,297.71z"/>
		<path d="M474.949,308.481c-5.214,2.173-10.432,4.342-15.646,6.515c-0.75,0.312-4.615,1.304-4.939,2.09
			c-0.988,2.399-1.977,4.799-2.965,7.197C461.919,324.953,470.95,317.897,474.949,308.481z"/>
		<path d="M511.843,275.287c2.794-6.028,5.591-12.056,8.385-18.084c-2.151,1.974-5.288,3.06-7.831,4.416
			c-1.438,0.765-2.883,1.563-4.177,2.561c-0.076,0.199,0.315,0.964,0.376,1.154C509.679,268.656,510.763,271.97,511.843,275.287z"/>
		<path d="M504.634,283.757c0.18,0.511,0.851,3.712,1.349,3.933c0.842-1.797,1.687-3.593,2.528-5.386
			c0.468-0.998,2.147-3.262,1.766-4.382c-1.398-4.116-2.801-8.234-4.202-12.35c-0.961,0.542-6.539,3.825-6.116,5.009
			c0.643,1.802,1.285,3.607,1.928,5.41C502.807,278.582,503.722,281.168,504.634,283.757z"/>
		<path d="M495.693,286.511c1.511,4.352,3.029,8.699,4.55,13.048c1.196-2.402,2.396-4.801,3.556-7.225
			c0.854-1.784,0.132-2.57-0.56-4.449c-1.895-5.129-3.758-10.267-5.622-15.404c-1.413,1.61-5.109,4.716-4.323,7.06
			C494.074,281.872,494.884,284.191,495.693,286.511z"/>
		<path d="M497.073,297.664c-1.885-5.327-3.771-10.651-5.655-15.976c-4.309,9.279-3.488,20.71,4.063,28.067
			c1.117-2.342,2.237-4.683,3.354-7.023C499.199,301.964,497.341,298.433,497.073,297.664z"/>
		<path d="M524.147,272.242c0.181-0.083,1.014-0.306,1.111-0.496c-0.129-1.628-0.505-3.234-0.899-4.816
			c-0.701-2.797-1.995-5.854-1.974-8.773c-2.599,6.114-5.196,12.231-7.794,18.345C517.773,275.084,520.958,273.665,524.147,272.242z
			"/>
		<path d="M511.614,283.683c-0.769,1.83-1.536,3.657-2.305,5.487c0.499,0.221,3.323-1.426,3.825-1.635
			c2.531-1.061,5.067-2.114,7.602-3.164c1.769-0.734,3.537-1.465,5.306-2.197c1.163-0.48-0.144-6.821-0.386-7.898
			c-3.993,1.72-7.986,3.442-11.979,5.162C512.596,279.901,512.042,282.664,511.614,283.683z"/>
		<path d="M523.866,293.123c2.268-0.988,2.09-5.811,2.338-7.94c-5.062,2.062-10.126,4.122-15.199,6.157
			c-1.854,0.743-2.925,0.736-3.678,2.566c-1.019,2.482-1.998,4.982-2.975,7.482c4.247-1.787,8.491-3.574,12.732-5.37
			C519.349,295.057,521.614,294.105,523.866,293.123z"/>
		<path d="M502.948,304.559c-0.988,2.399-1.977,4.798-2.965,7.197c10.52,0.673,19.55-6.387,23.55-15.802
			c-5.218,2.173-10.432,4.342-15.649,6.515C507.133,302.78,503.272,303.772,502.948,304.559z"/>
		<path d="M332.332,213.423c-0.077,0.199,0.314,0.964,0.376,1.153c1.083,3.317,2.163,6.634,3.247,9.951
			c2.794-6.028,5.587-12.057,8.384-18.084c-2.147,1.974-5.287,3.06-7.83,4.416C335.07,211.626,333.625,212.425,332.332,213.423z"/>
		<path d="M324.073,219.824c0.643,1.802,1.285,3.607,1.928,5.41c0.918,2.585,1.836,5.171,2.747,7.763
			c0.181,0.511,0.852,3.711,1.35,3.932c0.842-1.796,1.687-3.593,2.528-5.386c0.468-0.998,2.147-3.262,1.769-4.382
			c-1.401-4.116-2.8-8.234-4.202-12.35C329.225,215.356,323.647,218.64,324.073,219.824z"/>
		<path d="M327.91,241.578c0.854-1.784,0.135-2.57-0.561-4.449c-1.894-5.128-3.757-10.266-5.621-15.404
			c-1.416,1.609-5.109,4.715-4.323,7.059c0.78,2.329,1.594,4.648,2.398,6.971c1.512,4.352,3.03,8.7,4.551,13.048
			C325.55,246.4,326.75,243.998,327.91,241.578z"/>
		<path d="M319.589,258.995c1.117-2.341,2.237-4.682,3.354-7.022c0.367-0.768-1.49-4.299-1.763-5.064
			c-1.885-5.328-3.77-10.652-5.654-15.976C311.22,240.207,312.038,251.639,319.589,258.995z"/>
		<path d="M349.37,220.99c-0.129-1.628-0.505-3.234-0.899-4.816c-0.698-2.797-1.996-5.854-1.975-8.773
			c-2.598,6.114-5.195,12.231-7.793,18.345c3.188-1.42,6.374-2.843,9.562-4.262C348.439,221.403,349.271,221.18,349.37,220.99z"/>
		<path d="M349.773,223.512c-3.993,1.72-7.986,3.442-11.979,5.162c-1.086,0.468-1.638,3.228-2.065,4.247
			c-0.769,1.83-1.536,3.657-2.305,5.487c0.499,0.22,3.323-1.426,3.825-1.634c2.53-1.062,5.067-2.114,7.602-3.164
			c1.769-0.734,3.537-1.466,5.306-2.197C351.319,230.929,350.012,224.588,349.773,223.512z"/>
		<path d="M350.318,234.423c-5.062,2.062-10.125,4.122-15.199,6.157c-1.857,0.744-2.925,0.737-3.678,2.567
			c-1.02,2.481-1.998,4.981-2.975,7.481c4.247-1.787,8.491-3.574,12.732-5.37c2.262-0.958,4.529-1.909,6.781-2.892
			C350.248,241.376,350.07,236.553,350.318,234.423z"/>
		<path d="M347.643,245.195c-5.214,2.172-10.431,4.342-15.646,6.515c-0.75,0.312-4.614,1.303-4.938,2.09
			c-0.988,2.399-1.977,4.798-2.966,7.197C334.614,261.667,343.644,254.61,347.643,245.195z"/>
		<path d="M383.155,194.494c-0.076,0.199,0.315,0.964,0.376,1.153c1.084,3.317,2.164,6.634,3.247,9.951
			c2.794-6.028,5.591-12.056,8.385-18.084c-2.148,1.974-5.288,3.06-7.831,4.416C385.893,192.7,384.449,193.499,383.155,194.494z"/>
		<path d="M379.569,214.068c0.181,0.511,0.851,3.712,1.349,3.932c0.842-1.796,1.687-3.592,2.528-5.386
			c0.468-0.998,2.147-3.262,1.769-4.382c-1.398-4.116-2.8-8.234-4.201-12.35c-0.961,0.542-6.539,3.825-6.117,5.009
			c0.643,1.802,1.285,3.607,1.928,5.41C377.742,208.894,378.657,211.479,379.569,214.068z"/>
		<path d="M378.73,222.648c0.854-1.784,0.135-2.57-0.56-4.449c-1.895-5.128-3.758-10.266-5.621-15.404
			c-1.417,1.609-5.11,4.715-4.324,7.059c0.78,2.329,1.595,4.648,2.399,6.971c1.512,4.352,3.029,8.7,4.55,13.048
			C376.374,227.471,377.574,225.069,378.73,222.648z"/>
		<path d="M373.767,233.043c0.367-0.768-1.49-4.299-1.763-5.064c-1.885-5.328-3.771-10.652-5.655-15.976
			c-4.309,9.278-3.488,20.71,4.063,28.066C371.53,237.725,372.65,235.384,373.767,233.043z"/>
		<path d="M400.19,202.061c-0.129-1.628-0.505-3.234-0.902-4.816c-0.698-2.797-1.995-5.854-1.975-8.773
			c-2.598,6.114-5.195,12.23-7.793,18.344c3.188-1.419,6.374-2.842,9.562-4.262C399.262,202.474,400.095,202.25,400.19,202.061z"/>
		<path d="M400.594,204.585c-3.994,1.72-7.987,3.442-11.98,5.162c-1.086,0.468-1.637,3.229-2.065,4.247
			c-0.768,1.83-1.536,3.657-2.304,5.487c0.498,0.22,3.322-1.426,3.824-1.634c2.531-1.062,5.067-2.115,7.602-3.164
			c1.769-0.734,3.537-1.466,5.306-2.197C402.142,212.003,400.835,205.659,400.594,204.585z"/>
		<path d="M401.141,215.494c-5.061,2.062-10.125,4.122-15.198,6.157c-1.854,0.744-2.926,0.738-3.679,2.567
			c-1.019,2.482-1.998,4.982-2.974,7.482c4.247-1.787,8.491-3.574,12.732-5.371c2.261-0.958,4.528-1.909,6.78-2.892
			C401.068,222.447,400.894,217.624,401.141,215.494z"/>
		<path d="M398.467,226.266c-5.215,2.172-10.432,4.342-15.649,6.515c-0.749,0.312-4.614,1.304-4.938,2.09
			c-0.988,2.399-1.977,4.798-2.965,7.197C385.438,242.737,394.467,235.681,398.467,226.266z"/>
		<path d="M399.795,289.283c-1.42,1.221-2.84,2.481-4.039,3.926c-0.037,0.242,0.597,1.004,0.713,1.199
			c2.05,3.452,4.1,6.9,6.15,10.35c1.618-7.47,3.234-14.936,4.853-22.406C405.557,285.112,402.307,287.119,399.795,289.283z"/>
		<path d="M399.167,320.152c0.493-2.228,0.985-4.455,1.479-6.68c0.275-1.239,1.588-4.202,0.878-5.361
			c-2.607-4.266-5.217-8.534-7.824-12.8c-0.942,0.851-6.377,5.939-5.603,7.163c1.175,1.86,2.35,3.725,3.524,5.588
			c1.684,2.668,3.363,5.34,5.04,8.017C396.992,316.608,398.552,320.03,399.167,320.152z"/>
		<path d="M397.882,325.917c0.508-2.215-0.498-2.919-1.747-4.85c-3.415-5.278-6.806-10.572-10.189-15.869
			c-1.182,2.163-4.548,6.579-3.072,9.012c1.466,2.417,2.959,4.816,4.449,7.216c2.79,4.501,5.591,8.999,8.394,13.494
			C396.454,331.921,397.194,328.926,397.882,325.917z"/>
		<path d="M392.938,347.558c0.664-2.91,1.331-5.817,1.995-8.727c0.217-0.955-2.754-4.449-3.253-5.239
			c-3.455-5.502-6.913-11.004-10.371-16.506C378.81,328.583,382.61,341.208,392.938,347.558z"/>
		<path d="M410.128,282.885c-1.374,7.516-2.751,15.033-4.125,22.549c3.22-2.398,6.436-4.795,9.654-7.19
			c0.184-0.138,1.062-0.597,1.12-0.836c-0.557-1.793-1.383-3.503-2.225-5.177C413.063,289.268,410.838,286.165,410.128,282.885z"/>
		<path d="M404.477,314.237c-0.401,2.246-0.802,4.492-1.203,6.735c0.615,0.122,3.369-2.439,3.881-2.797
			c2.573-1.827,5.152-3.647,7.732-5.466c1.799-1.27,3.602-2.536,5.4-3.803c1.182-0.833-1.879-7.62-2.42-8.768
			c-4.049,2.938-8.097,5.876-12.143,8.813C404.624,309.748,404.701,312.986,404.477,314.237z"/>
		<path d="M421.227,312.245c-5.162,3.59-10.324,7.176-15.505,10.737c-1.894,1.304-3.097,1.567-3.479,3.807
			c-0.52,3.042-0.985,6.093-1.453,9.144c4.314-3.075,8.626-6.15,12.935-9.235c2.298-1.646,4.6-3.286,6.879-4.954
			C422.901,320.063,421.488,314.696,421.227,312.245z"/>
		<path d="M420.943,325.006c-5.306,3.751-10.612,7.5-15.918,11.251c-0.766,0.539-4.851,2.626-5.016,3.59
			c-0.505,2.94-1.01,5.881-1.515,8.822C410.471,346.771,418.829,336.578,420.943,325.006z"/>
		<path d="M347.542,301.624c-1.588,1.368-3.18,2.778-4.522,4.395c-0.04,0.269,0.667,1.123,0.799,1.343
			c2.295,3.862,4.59,7.724,6.885,11.589c1.812-8.363,3.62-16.724,5.432-25.083C353.99,296.954,350.355,299.2,347.542,301.624z"/>
		<path d="M346.835,336.187c0.551-2.494,1.104-4.987,1.655-7.481c0.31-1.386,1.781-4.703,0.985-6.001
			c-2.919-4.776-5.841-9.553-8.761-14.33c-1.056,0.952-7.139,6.653-6.272,8.021c1.315,2.084,2.632,4.168,3.947,6.255
			c1.885,2.989,3.767,5.979,5.64,8.978C344.403,332.218,346.15,336.049,346.835,336.187z"/>
		<path d="M345.401,342.641c0.568-2.481-0.558-3.269-1.959-5.432c-3.825-5.909-7.616-11.839-11.407-17.77
			c-1.325,2.424-5.092,7.365-3.439,10.089c1.64,2.705,3.313,5.392,4.981,8.081c3.124,5.04,6.261,10.077,9.397,15.11
			C343.8,349.363,344.629,346.01,345.401,342.641z"/>
		<path d="M339.862,366.869c0.744-3.256,1.487-6.515,2.234-9.771c0.241-1.067-3.085-4.981-3.642-5.866
			c-3.868-6.159-7.742-12.319-11.613-18.479C324.044,345.624,328.301,359.761,339.862,366.869z"/>
		<path d="M359.109,294.461c-1.539,8.415-3.078,16.83-4.62,25.248c3.602-2.684,7.206-5.367,10.811-8.055
			c0.205-0.152,1.188-0.67,1.255-0.933c-0.621-2.008-1.548-3.923-2.491-5.796C362.399,301.608,359.905,298.133,359.109,294.461z"/>
		<path d="M352.781,329.562c-0.446,2.513-0.896,5.028-1.346,7.543c0.688,0.138,3.772-2.729,4.342-3.133
			c2.883-2.048,5.769-4.086,8.657-6.12c2.017-1.42,4.032-2.84,6.046-4.26c1.325-0.934-2.102-8.531-2.711-9.816
			c-4.532,3.289-9.063,6.576-13.596,9.865C352.947,324.537,353.032,328.163,352.781,329.562z"/>
		<path d="M371.539,327.331c-5.776,4.018-11.558,8.035-17.359,12.022c-2.12,1.46-3.467,1.754-3.895,4.263
			c-0.582,3.406-1.105,6.821-1.628,10.239c4.831-3.442,9.657-6.889,14.482-10.34c2.57-1.842,5.15-3.679,7.702-5.548
			C373.409,336.089,371.827,330.079,371.539,327.331z"/>
		<path d="M371.217,341.618c-5.939,4.198-11.879,8.399-17.821,12.598c-0.854,0.606-5.432,2.938-5.615,4.019
			c-0.562,3.292-1.129,6.585-1.694,9.877C359.495,365.991,368.849,354.577,371.217,341.618z"/>
		<path d="M318.405,113.816c-0.061,0.159,0.255,0.78,0.304,0.934c0.875,2.681,1.75,5.361,2.622,8.042
			c2.258-4.872,4.517-9.74,6.774-14.611c-1.737,1.594-4.271,2.472-6.328,3.568C320.618,112.369,319.452,113.015,318.405,113.816z"/>
		<path d="M315.507,129.637c0.146,0.413,0.688,2.999,1.09,3.179c0.679-1.45,1.361-2.901,2.041-4.351
			c0.379-0.808,1.734-2.635,1.429-3.541c-1.132-3.326-2.265-6.652-3.394-9.979c-0.777,0.438-5.285,3.09-4.942,4.048
			c0.521,1.457,1.038,2.916,1.558,4.373C314.03,125.454,314.773,127.544,315.507,129.637z"/>
		<path d="M314.832,136.568c0.688-1.441,0.106-2.078-0.453-3.596c-1.53-4.143-3.039-8.295-4.544-12.448
			c-1.145,1.301-4.128,3.81-3.495,5.704c0.634,1.882,1.288,3.757,1.94,5.633c1.221,3.516,2.448,7.029,3.678,10.542
			C312.928,140.466,313.895,138.526,314.832,136.568z"/>
		<path d="M310.82,144.967c0.297-0.621-1.203-3.473-1.423-4.091c-1.524-4.302-3.045-8.607-4.569-12.91
			c-3.482,7.497-2.821,16.735,3.284,22.678C309.014,148.75,309.917,146.858,310.82,144.967z"/>
		<path d="M332.172,119.934c-0.104-1.316-0.41-2.613-0.729-3.893c-0.566-2.261-1.612-4.73-1.595-7.087
			c-2.099,4.942-4.198,9.881-6.297,14.823c2.576-1.147,5.149-2.295,7.727-3.446C331.422,120.267,332.092,120.086,332.172,119.934z"
			/>
		<path d="M332.497,121.972c-3.226,1.389-6.454,2.781-9.679,4.17c-0.878,0.376-1.325,2.61-1.671,3.434
			c-0.621,1.478-1.242,2.956-1.86,4.434c0.4,0.177,2.687-1.154,3.091-1.322c2.044-0.856,4.094-1.708,6.141-2.558
			c1.43-0.594,2.858-1.184,4.287-1.775C333.748,127.966,332.692,122.84,332.497,121.972z"/>
		<path d="M332.94,130.787c-4.091,1.665-8.183,3.333-12.279,4.976c-1.5,0.6-2.365,0.597-2.972,2.075
			c-0.823,2.007-1.612,4.024-2.405,6.043c3.431-1.444,6.86-2.889,10.288-4.339c1.827-0.774,3.66-1.545,5.478-2.338
			C332.882,136.405,332.738,132.51,332.94,130.787z"/>
		<path d="M330.777,139.493c-4.214,1.753-8.428,3.51-12.644,5.263c-0.606,0.254-3.73,1.053-3.99,1.689
			c-0.799,1.94-1.598,3.877-2.396,5.814C320.25,152.801,327.548,147.1,330.777,139.493z"/>
		<path d="M302.71,3.381c-0.037,0.095,0.153,0.468,0.184,0.56c0.526,1.609,1.05,3.216,1.573,4.822
			c1.355-2.922,2.708-5.845,4.063-8.764c-1.041,0.958-2.564,1.481-3.795,2.142C304.036,2.512,303.337,2.897,302.71,3.381z"/>
		<path d="M298.705,6.484c0.312,0.875,0.625,1.748,0.934,2.623c0.447,1.254,0.891,2.506,1.331,3.761
			c0.086,0.248,0.413,1.799,0.655,1.906c0.406-0.869,0.816-1.741,1.224-2.61c0.227-0.484,1.04-1.582,0.856-2.124
			c-0.679-1.995-1.358-3.99-2.034-5.985C301.205,4.317,298.5,5.912,298.705,6.484z"/>
		<path d="M295.473,10.826c0.38,1.129,0.771,2.252,1.163,3.378c0.731,2.108,1.469,4.216,2.206,6.325
			c0.582-1.163,1.163-2.329,1.724-3.5c0.413-0.866,0.063-1.246-0.272-2.157c-0.918-2.485-1.821-4.976-2.727-7.466
			C296.884,8.186,295.091,9.691,295.473,10.826z"/>
		<path d="M296.533,25.471c0.541-1.135,1.083-2.271,1.624-3.406c0.178-0.373-0.722-2.084-0.854-2.454
			c-0.911-2.583-1.826-5.162-2.741-7.745C292.475,16.365,292.873,21.906,296.533,25.471z"/>
		<path d="M309.574,0.465c-1.261,2.965-2.518,5.927-3.778,8.893c1.545-0.688,3.09-1.377,4.636-2.065
			c0.089-0.04,0.492-0.147,0.538-0.239c-0.064-0.79-0.245-1.567-0.438-2.335C310.192,3.36,309.562,1.879,309.574,0.465z"/>
		<path d="M305.357,10.774c-0.525,0.226-0.795,1.566-1,2.059c-0.373,0.887-0.744,1.772-1.117,2.659
			c0.242,0.107,1.609-0.691,1.854-0.792c1.228-0.514,2.457-1.025,3.685-1.533c0.856-0.355,1.713-0.71,2.573-1.065
			c0.562-0.232-0.07-3.308-0.187-3.828C309.228,9.106,307.292,9.942,305.357,10.774z"/>
		<path d="M310.293,17.411c1.099-0.477,1.013-2.815,1.135-3.849c-2.454,1-4.908,1.998-7.365,2.983
			c-0.899,0.361-1.42,0.358-1.784,1.245c-0.495,1.203-0.967,2.415-1.441,3.626c2.057-0.866,4.116-1.732,6.172-2.604
			C308.105,18.348,309.201,17.886,310.293,17.411z"/>
		<path d="M298.717,26.441c5.101,0.324,9.477-3.094,11.414-7.659c-2.528,1.053-5.056,2.105-7.583,3.158
			c-0.364,0.15-2.237,0.63-2.393,1.013C299.675,24.116,299.195,25.278,298.717,26.441z"/>
		<path d="M345.288,36.224c-1.319,0.511-2.926,0.45-4.314,0.612c-0.784,0.092-1.576,0.199-2.338,0.419
			c-0.07,0.077-0.028,0.493-0.034,0.587c-0.095,1.689-0.192,3.378-0.287,5.064C340.639,40.68,342.961,38.452,345.288,36.224z"/>
		<path d="M333.776,38.69c-0.028,0.927-0.056,1.854-0.083,2.782c-0.04,1.331-0.082,2.659-0.129,3.99
			c-0.009,0.263-0.269,1.827-0.085,2.013c0.697-0.661,1.396-1.325,2.09-1.986c0.389-0.367,1.545-1.092,1.569-1.667
			c0.096-2.105,0.188-4.211,0.282-6.316C336.894,37.583,333.794,38.082,333.776,38.69z"/>
		<path d="M329.186,41.558c-0.059,1.19-0.102,2.381-0.147,3.571c-0.086,2.23-0.165,4.461-0.245,6.692
			c0.965-0.872,1.929-1.744,2.88-2.634c0.701-0.655,0.514-1.139,0.532-2.108c0.049-2.65,0.113-5.297,0.178-7.947
			C331.462,39.611,329.247,40.361,329.186,41.558z"/>
		<path d="M324.846,55.585c0.918-0.86,1.836-1.72,2.754-2.58c0.3-0.282,0.086-2.204,0.099-2.598c0.089-2.735,0.177-5.474,0.263-8.21
			C324.381,45.627,322.735,50.934,324.846,55.585z"/>
		<path d="M344.406,43.703c0.095-0.006,0.512,0.04,0.588-0.027c0.229-0.759,0.343-1.551,0.443-2.332
			c0.178-1.386,0.132-2.996,0.655-4.309c-2.252,2.304-4.505,4.605-6.754,6.909C341.025,43.862,342.717,43.782,344.406,43.703z"/>
		<path d="M336.732,46.659c-0.671,0.692-1.341,1.38-2.008,2.072c0.187,0.187,1.754-0.058,2.014-0.064
			c1.331-0.034,2.659-0.061,3.99-0.089c0.927-0.018,1.854-0.04,2.784-0.055c0.609-0.012,1.139-3.106,1.218-3.635
			c-2.104,0.073-4.213,0.147-6.318,0.22C337.839,45.126,337.102,46.276,336.732,46.659z"/>
		<path d="M330.33,53.373c2.231-0.058,4.465-0.117,6.695-0.181c1.19-0.034,2.381-0.064,3.571-0.11
			c1.196-0.046,1.968-2.255,2.457-3.173c-2.649,0.04-5.297,0.076-7.946,0.101c-0.971,0.009-1.45-0.184-2.114,0.511
			C332.095,51.46,331.214,52.417,330.33,53.373z"/>
		<path d="M331.735,54.483c-0.396,0.009-2.313-0.227-2.599,0.073c-0.868,0.909-1.737,1.817-2.606,2.727
			c4.633,2.157,9.954,0.563,13.418-2.98C337.208,54.361,334.473,54.422,331.735,54.483z"/>
		<path d="M360.917,54.777c-1.318,0.511-2.928,0.45-4.314,0.612c-0.783,0.092-1.576,0.199-2.338,0.419
			c-0.07,0.077-0.027,0.493-0.033,0.587c-0.095,1.689-0.193,3.378-0.288,5.064C356.27,59.232,358.592,57.005,360.917,54.777z"/>
		<path d="M349.406,57.243c-0.027,0.927-0.055,1.854-0.082,2.782c-0.04,1.331-0.083,2.659-0.129,3.99
			c-0.009,0.263-0.27,1.827-0.086,2.013c0.698-0.661,1.396-1.325,2.091-1.986c0.388-0.367,1.545-1.092,1.569-1.667
			c0.095-2.105,0.187-4.21,0.281-6.316C352.524,56.136,349.424,56.634,349.406,57.243z"/>
		<path d="M344.816,60.11c-0.058,1.19-0.101,2.381-0.146,3.571c-0.086,2.23-0.165,4.461-0.245,6.692
			c0.964-0.873,1.928-1.745,2.88-2.635c0.7-0.655,0.514-1.139,0.532-2.108c0.049-2.65,0.113-5.297,0.178-7.947
			C347.089,58.165,344.875,58.914,344.816,60.11z"/>
		<path d="M343.231,71.558c0.3-0.282,0.086-2.203,0.098-2.598c0.089-2.735,0.175-5.474,0.264-8.21
			c-3.58,3.427-5.227,8.736-3.115,13.388C341.395,73.278,342.313,72.418,343.231,71.558z"/>
		<path d="M360.625,62.228c0.229-0.759,0.342-1.551,0.443-2.332c0.178-1.386,0.132-2.996,0.654-4.309
			c-2.252,2.304-4.504,4.605-6.753,6.909c1.689-0.079,3.378-0.159,5.067-0.238C360.131,62.252,360.547,62.298,360.625,62.228z"/>
		<path d="M352.359,65.211c-0.67,0.692-1.337,1.38-2.007,2.072c0.187,0.187,1.753-0.058,2.013-0.064
			c1.331-0.034,2.659-0.061,3.99-0.088c0.928-0.019,1.854-0.04,2.785-0.055c0.608-0.012,1.138-3.106,1.218-3.635
			c-2.105,0.073-4.214,0.147-6.319,0.22C353.47,63.679,352.732,64.829,352.359,65.211z"/>
		<path d="M345.96,71.925c2.23-0.058,4.465-0.116,6.695-0.181c1.19-0.034,2.381-0.064,3.571-0.11
			c1.199-0.046,1.968-2.255,2.457-3.173c-2.65,0.04-5.3,0.076-7.947,0.101c-0.97,0.009-1.45-0.184-2.114,0.511
			C347.726,70.013,346.841,70.971,345.96,71.925z"/>
		<path d="M347.365,73.036c-0.395,0.009-2.313-0.227-2.598,0.073c-0.869,0.909-1.738,1.818-2.607,2.727
			c4.633,2.157,9.954,0.563,13.418-2.98C352.839,72.914,350.101,72.975,347.365,73.036z"/>
		<path d="M306.636,34.269c-0.043,0.117,0.189,0.563,0.227,0.673c0.655,1.937,1.31,3.871,1.965,5.805
			c1.597-3.547,3.194-7.093,4.792-10.64c-1.246,1.169-3.075,1.824-4.557,2.634C308.228,33.201,307.389,33.678,306.636,34.269z"/>
		<path d="M305.391,35.098c-0.56,0.324-3.804,2.283-3.55,2.974c0.389,1.053,0.777,2.103,1.163,3.155
			c0.554,1.508,1.107,3.017,1.658,4.525c0.11,0.297,0.523,2.167,0.814,2.295c0.48-1.056,0.964-2.114,1.444-3.17
			c0.269-0.587,1.236-1.925,1.007-2.577C307.083,39.899,306.236,37.5,305.391,35.098z"/>
		<path d="M297.995,43.357c0.475,1.359,0.964,2.711,1.451,4.064c0.911,2.537,1.829,5.073,2.747,7.61
			c0.686-1.414,1.371-2.827,2.035-4.253c0.49-1.049,0.062-1.505-0.354-2.601c-1.142-2.99-2.268-5.985-3.391-8.981
			C299.663,40.15,297.521,41.992,297.995,43.357z"/>
		<path d="M301.388,56.897c0.208-0.453-0.899-2.506-1.064-2.953c-1.139-3.106-2.276-6.212-3.415-9.318
			c-2.463,5.459-1.909,12.148,2.559,16.405C300.11,59.655,300.75,58.277,301.388,56.897z"/>
		<path d="M314.889,30.652c-1.481,3.596-2.965,7.194-4.446,10.79c1.857-0.854,3.715-1.704,5.569-2.558
			c0.107-0.049,0.591-0.184,0.646-0.297c-0.086-0.952-0.318-1.891-0.56-2.812C315.672,34.144,314.895,32.362,314.889,30.652z"/>
		<path d="M309.932,43.164c-0.634,0.282-0.939,1.9-1.182,2.5c-0.438,1.074-0.875,2.151-1.312,3.226
			c0.294,0.125,1.938-0.857,2.228-0.982c1.476-0.637,2.953-1.27,4.432-1.903c1.031-0.44,2.062-0.881,3.093-1.322
			c0.677-0.288-0.128-3.994-0.275-4.621C314.586,41.099,312.257,42.13,309.932,43.164z"/>
		<path d="M304.614,56.078c2.476-1.074,4.948-2.148,7.421-3.229c1.318-0.575,2.638-1.147,3.95-1.738
			c1.322-0.594,1.188-3.415,1.318-4.664c-2.949,1.239-5.899,2.479-8.858,3.703c-1.08,0.447-1.707,0.453-2.136,1.527
			C305.724,53.137,305.17,54.605,304.614,56.078z"/>
		<path d="M315.807,52.772c-3.038,1.304-6.08,2.61-9.119,3.917c-0.438,0.187-2.692,0.792-2.876,1.254
			c-0.562,1.411-1.126,2.822-1.689,4.232C308.286,62.5,313.528,58.311,315.807,52.772z"/>
		<path d="M343.335,92.862c0.036,0.119,0.489,0.336,0.587,0.401c1.687,1.153,3.372,2.304,5.062,3.458
			c-0.856-3.794-1.711-7.588-2.567-11.383c-0.294,1.683-1.361,3.308-2.057,4.847C343.965,91.05,343.583,91.938,343.335,92.862z"/>
		<path d="M341.79,98.783c0.942,0.606,1.885,1.215,2.827,1.824c1.35,0.872,2.699,1.744,4.046,2.62
			c0.267,0.174,1.72,1.417,2.028,1.343c-0.251-1.132-0.502-2.268-0.749-3.403c-0.138-0.63-0.169-2.28-0.744-2.662
			c-2.12-1.411-4.238-2.821-6.358-4.232C342.585,94.866,341.171,98.382,341.79,98.783z"/>
		<path d="M345.499,107.697c2.255,1.478,4.514,2.956,6.771,4.431c-0.303-1.542-0.603-3.084-0.93-4.621
			c-0.242-1.132-0.857-1.242-1.849-1.863c-2.708-1.705-5.41-3.421-8.109-5.141c-0.082,1.251-0.688,4.012,0.515,4.82
			C343.09,106.121,344.292,106.907,345.499,107.697z"/>
		<path d="M353.696,118.557c-0.317-1.484-0.633-2.971-0.951-4.456c-0.104-0.486-2.228-1.462-2.626-1.72
			c-2.775-1.799-5.554-3.595-8.329-5.395C343.106,112.828,347.567,117.84,353.696,118.557z"/>
		<path d="M353.944,90.288c-0.643-0.71-1.389-1.322-2.136-1.912c-1.325-1.05-3.018-2.004-4.048-3.366
			c0.979,3.764,1.955,7.531,2.935,11.294c0.97-1.796,1.942-3.596,2.913-5.392C353.66,90.812,353.965,90.411,353.944,90.288z"/>
		<path d="M352.766,104.064c0.309-0.077,1.034-1.848,1.19-2.124c0.795-1.396,1.597-2.791,2.396-4.183
			c0.561-0.973,1.117-1.943,1.677-2.916c0.367-0.64-2.503-3.115-2.998-3.528c-1.239,2.225-2.476,4.449-3.715,6.674
			c-0.337,0.606,0.395,2.084,0.557,2.708C352.172,101.821,352.469,102.944,352.766,104.064z"/>
		<path d="M358.819,104.465c0.707-1.251,1.42-2.503,2.114-3.764c0.701-1.267-1.104-3.442-1.75-4.52
			c-1.613,2.763-3.226,5.53-4.854,8.284c-0.597,1.007-1.093,1.386-0.789,2.503c0.413,1.515,0.854,3.023,1.291,4.535
			C356.16,109.159,357.491,106.815,358.819,104.465z"/>
		<path d="M361.787,102.137c-1.643,2.87-3.289,5.74-4.933,8.611c-0.235,0.413-1.677,2.252-1.545,2.732
			c0.397,1.466,0.795,2.932,1.193,4.397C361.625,114.432,363.292,107.932,361.787,102.137z"/>
		<path d="M433.639,175.258c-1.778,1.634-4.376,2.531-6.481,3.654c-1.19,0.633-2.384,1.294-3.455,2.117
			c-0.064,0.166,0.261,0.799,0.312,0.955c0.896,2.745,1.79,5.489,2.687,8.234C429.015,185.234,431.326,180.246,433.639,175.258z"/>
		<path d="M416.867,186.33c0.532,1.493,1.065,2.983,1.595,4.477c0.762,2.139,1.521,4.278,2.273,6.423
			c0.149,0.422,0.703,3.072,1.116,3.253c0.698-1.484,1.396-2.971,2.091-4.456c0.389-0.826,1.777-2.699,1.462-3.623
			c-1.159-3.406-2.316-6.812-3.476-10.217C421.135,182.63,416.518,185.347,416.867,186.33z"/>
		<path d="M420.043,204.325c0.706-1.475,0.109-2.126-0.463-3.681c-1.566-4.244-3.108-8.495-4.65-12.745
			c-1.172,1.334-4.229,3.901-3.577,5.841c0.646,1.928,1.318,3.846,1.985,5.768c1.252,3.602,2.507,7.197,3.764,10.796
			C418.094,208.315,419.085,206.33,420.043,204.325z"/>
		<path d="M415.937,212.927c0.303-0.636-1.233-3.556-1.457-4.192c-1.561-4.407-3.118-8.813-4.679-13.219
			c-3.564,7.674-2.889,17.136,3.363,23.222C414.085,216.801,415.009,214.864,415.937,212.927z"/>
		<path d="M437.8,187.293c-0.107-1.347-0.419-2.678-0.747-3.984c-0.578-2.316-1.652-4.844-1.634-7.258
			c-2.147,5.062-4.299,10.12-6.45,15.178c2.638-1.175,5.272-2.35,7.91-3.528C437.033,187.633,437.721,187.449,437.8,187.293z"/>
		<path d="M438.134,189.38c-3.306,1.423-6.607,2.849-9.912,4.271c-0.899,0.386-1.355,2.671-1.71,3.516
			c-0.637,1.512-1.271,3.026-1.906,4.538c0.413,0.184,2.751-1.181,3.164-1.353c2.096-0.878,4.191-1.748,6.291-2.62
			c1.463-0.606,2.929-1.215,4.391-1.817C439.413,195.519,438.333,190.271,438.134,189.38z"/>
		<path d="M438.583,198.407c-4.189,1.705-8.378,3.412-12.576,5.095c-1.536,0.615-2.421,0.612-3.042,2.124
			c-0.845,2.053-1.652,4.122-2.463,6.19c3.513-1.478,7.025-2.959,10.535-4.443c1.873-0.792,3.745-1.582,5.609-2.393
			C438.526,204.16,438.378,200.17,438.583,198.407z"/>
		<path d="M436.375,207.321c-4.314,1.796-8.633,3.593-12.947,5.392c-0.621,0.26-3.818,1.077-4.085,1.729
			c-0.817,1.986-1.634,3.969-2.454,5.955C425.594,220.95,433.063,215.109,436.375,207.321z"/>
		<path d="M491.412,216.238c-2.097-0.878-3.979-2.806-5.814-4.195c-1.037-0.786-2.099-1.563-3.234-2.164
			c-0.159,0.016-0.517,0.579-0.621,0.692c-1.781,1.983-3.562,3.966-5.34,5.952C481.402,216.424,486.406,216.33,491.412,216.238z"/>
		<path d="M468.149,214.23c-0.269,0.315-2.126,1.956-2.087,2.399c1.494-0.021,2.99-0.04,4.483-0.061
			c0.832-0.012,2.943,0.419,3.537-0.263c2.188-2.503,4.376-5.006,6.563-7.509c-0.713-0.517-4.944-3.455-5.568-2.72
			c-0.949,1.12-1.895,2.237-2.843,3.354C470.875,211.033,469.514,212.633,468.149,214.23z"/>
		<path d="M463.015,208.619c-2.302,2.668-4.6,5.342-6.895,8.017c2.025,0.024,4.048,0.052,6.074,0.04
			c1.49-0.009,1.741-0.82,2.717-2.001c2.672-3.229,5.358-6.441,8.045-9.651c-1.585-0.468-5-2.084-6.248-0.664
			C465.469,205.77,464.242,207.195,463.015,208.619z"/>
		<path d="M447.647,216.771c1.956-0.013,3.911-0.025,5.866-0.037c0.64-0.003,2.273-2.635,2.678-3.109
			c2.803-3.292,5.605-6.585,8.412-9.881C456.898,203.881,449.679,208.573,447.647,216.771z"/>
		<path d="M482.972,224.503c0.122,0.104,0.578,0.64,0.737,0.643c1.022-0.676,1.94-1.53,2.834-2.387
			c1.581-1.515,3.108-3.565,5.036-4.59c-4.987,0.269-9.976,0.538-14.963,0.808C478.737,220.819,480.855,222.661,482.972,224.503z"/>
		<path d="M474.355,219.356c-0.71-0.633-2.732-0.055-3.562-0.006c-1.487,0.089-2.978,0.175-4.465,0.264
			c0.04,0.446,2.173,1.94,2.497,2.233c1.637,1.487,3.271,2.98,4.905,4.474c1.142,1.044,2.279,2.084,3.418,3.127
			c0.746,0.686,4.434-2.542,5.052-3.106C479.584,224.013,476.968,221.685,474.355,219.356z"/>
		<path d="M462.473,219.846c-2.014,0.135-4.021,0.309-6.028,0.48c2.751,2.491,5.505,4.981,8.262,7.469
			c1.473,1.325,2.938,2.656,4.422,3.966c1.493,1.319,4.6-0.536,6.093-1.114c-3.237-2.996-6.472-5.992-9.697-9.006
			C464.349,220.537,463.958,219.745,462.473,219.846z"/>
		<path d="M453.837,220.421c-1.945,0.128-3.889,0.257-5.835,0.386c3.467,7.999,11.463,12.133,19.144,11.716
			c-3.366-3.069-6.732-6.138-10.099-9.208C456.561,222.872,454.477,220.378,453.837,220.421z"/>
		<path d="M388.036,78.192c-0.046,0.117,0.184,0.566,0.22,0.676c0.634,1.943,1.268,3.883,1.9,5.826
			c1.638-3.528,3.271-7.059,4.908-10.587c-1.257,1.157-3.097,1.79-4.587,2.585C389.639,77.143,388.792,77.607,388.036,78.192z"/>
		<path d="M383.198,81.94c0.376,1.056,0.753,2.111,1.129,3.167c0.539,1.515,1.074,3.03,1.609,4.544
			c0.104,0.3,0.499,2.172,0.79,2.301c0.492-1.053,0.985-2.103,1.48-3.155c0.275-0.584,1.258-1.909,1.034-2.564
			c-0.819-2.412-1.64-4.82-2.46-7.231C386.218,79.324,382.95,81.246,383.198,81.94z"/>
		<path d="M379.293,87.186c0.459,1.365,0.933,2.72,1.404,4.082c0.884,2.549,1.774,5.095,2.665,7.641
			c0.701-1.404,1.404-2.812,2.081-4.229c0.499-1.043,0.076-1.505-0.327-2.604c-1.108-3.002-2.2-6.01-3.293-9.018
			C380.998,83.997,378.834,85.812,379.293,87.186z"/>
		<path d="M380.576,104.875c0.654-1.371,1.31-2.742,1.964-4.112c0.215-0.45-0.872-2.519-1.031-2.965
			c-1.104-3.118-2.206-6.236-3.311-9.354C375.673,93.875,376.154,100.567,380.576,104.875z"/>
		<path d="M396.325,74.667c-1.521,3.58-3.041,7.16-4.565,10.741c1.867-0.833,3.733-1.665,5.597-2.497
			c0.107-0.049,0.594-0.178,0.649-0.291c-0.077-0.955-0.297-1.895-0.526-2.818C397.072,78.165,396.313,76.375,396.325,74.667z"/>
		<path d="M391.233,87.121c-0.636,0.272-0.957,1.891-1.208,2.488c-0.45,1.071-0.9,2.142-1.35,3.213
			c0.29,0.128,1.946-0.835,2.239-0.958c1.481-0.621,2.966-1.236,4.449-1.854c1.038-0.428,2.072-0.86,3.109-1.288
			c0.68-0.282-0.083-3.994-0.227-4.624C395.909,85.107,393.571,86.114,391.233,87.121z"/>
		<path d="M397.197,95.138c1.328-0.578,1.225-3.403,1.371-4.648c-2.965,1.206-5.927,2.414-8.898,3.604
			c-1.086,0.435-1.714,0.432-2.154,1.502c-0.597,1.454-1.169,2.917-1.741,4.379c2.485-1.046,4.973-2.093,7.454-3.146
			C394.55,96.271,395.878,95.71,397.197,95.138z"/>
		<path d="M384.948,101.831c-0.578,1.405-1.156,2.809-1.734,4.213c6.159,0.395,11.447-3.739,13.788-9.25
			c-3.054,1.27-6.108,2.543-9.162,3.815C387.399,100.793,385.138,101.372,384.948,101.831z"/>
		<path d="M445.34,153.407c-1.255-1.16-2.038-2.938-2.953-4.357c-0.514-0.802-1.053-1.606-1.695-2.313
			c-0.119-0.034-0.548,0.229-0.655,0.275c-1.885,0.789-3.767,1.582-5.651,2.371C438.036,150.723,441.69,152.063,445.34,153.407z"/>
		<path d="M429.097,145.58c-0.29,0.128-2.126,0.673-2.23,0.976c1.087,0.407,2.176,0.811,3.266,1.218
			c0.605,0.227,2.007,1.099,2.641,0.82c2.335-1.013,4.669-2.029,7.004-3.042c-0.361-0.535-2.546-3.632-3.216-3.329
			c-1.022,0.462-2.044,0.924-3.066,1.383C432.032,144.264,430.567,144.925,429.097,145.58z"/>
		<path d="M419.667,143.774c1.46,0.584,2.916,1.169,4.385,1.729c1.084,0.413,1.509-0.046,2.571-0.539
			c2.9-1.35,5.811-2.684,8.721-4.018c-1.007-0.75-2.996-2.757-4.327-2.185c-1.322,0.566-2.635,1.153-3.953,1.735
			C424.596,141.583,422.13,142.675,419.667,143.774z"/>
		<path d="M413.492,141.482c1.42,0.542,2.84,1.081,4.26,1.622c0.465,0.177,2.438-1.074,2.87-1.27
			c3.017-1.355,6.034-2.711,9.052-4.063C424.055,135.695,417.42,136.724,413.492,141.482z"/>
		<path d="M444.884,154.71c-3.693-1.224-7.387-2.448-11.077-3.669c0.982,1.793,1.965,3.583,2.946,5.376
			c0.056,0.101,0.227,0.578,0.343,0.624c0.942-0.153,1.864-0.45,2.767-0.756C441.46,155.739,443.18,154.836,444.884,154.71z"/>
		<path d="M429.477,149.649c-1.104-0.361-2.209-0.723-3.311-1.081c-0.104,0.3,0.991,1.87,1.138,2.154
			c0.741,1.426,1.476,2.855,2.213,4.284c0.511,0.998,1.025,1.995,1.536,2.993c0.336,0.655,3.975-0.41,4.59-0.603
			c-1.196-2.246-2.39-4.495-3.586-6.744C431.729,150.041,430.092,149.851,429.477,149.649z"/>
		<path d="M423.305,147.639c-1.496-0.478-3.002-0.927-4.508-1.377c1.246,2.393,2.494,4.783,3.746,7.173
			c0.667,1.273,1.331,2.552,2.013,3.819c0.686,1.276,3.492,0.942,4.746,0.985c-1.444-2.855-2.892-5.71-4.32-8.574
			C424.456,148.615,424.41,147.991,423.305,147.639z"/>
		<path d="M416.879,145.592c-1.447-0.462-2.896-0.924-4.343-1.386c0.11,6.172,4.664,11.102,10.35,12.986
			c-1.519-2.94-3.033-5.878-4.551-8.819C418.119,147.951,417.353,145.742,416.879,145.592z"/>
		<path d="M458.434,175.02c1.343-3.65,2.684-7.301,4.026-10.955c-1.159,1.254-2.938,2.038-4.357,2.953
			c-0.802,0.518-1.606,1.053-2.312,1.695c-0.034,0.12,0.229,0.548,0.275,0.655C456.852,171.253,457.644,173.135,458.434,175.02z"/>
		<path d="M454.633,180.307c0.129,0.291,0.673,2.124,0.977,2.231c0.403-1.089,0.811-2.176,1.218-3.265
			c0.227-0.606,1.099-2.007,0.819-2.641c-1.013-2.335-2.028-4.669-3.041-7.004c-0.536,0.361-3.633,2.546-3.329,3.216
			c0.462,1.022,0.924,2.044,1.383,3.066C453.318,177.373,453.975,178.838,454.633,180.307z"/>
		<path d="M449.544,182.342c1.09,2.466,2.185,4.933,3.28,7.396c0.585-1.459,1.169-2.916,1.729-4.385
			c0.413-1.081-0.046-1.506-0.539-2.571c-1.35-2.901-2.684-5.811-4.018-8.721c-0.75,1.006-2.757,2.996-2.185,4.327
			C448.378,179.71,448.963,181.026,449.544,182.342z"/>
		<path d="M450.533,195.913c0.542-1.419,1.08-2.839,1.622-4.259c0.178-0.465-1.074-2.436-1.27-2.87
			c-1.356-3.017-2.708-6.035-4.064-9.052C444.75,185.35,445.775,191.984,450.533,195.913z"/>
		<path d="M465.465,172.654c0.102-0.055,0.576-0.227,0.625-0.343c-0.153-0.942-0.45-1.863-0.756-2.766
			c-0.542-1.601-1.444-3.32-1.573-5.024c-1.224,3.693-2.448,7.383-3.669,11.077C461.882,174.616,463.675,173.637,465.465,172.654z"
			/>
		<path d="M458.704,179.928c-0.361,1.105-0.723,2.207-1.081,3.311c0.304,0.104,1.87-0.991,2.154-1.138
			c1.427-0.741,2.855-1.475,4.284-2.212c0.998-0.514,1.995-1.025,2.993-1.536c0.654-0.336-0.41-3.975-0.604-4.59
			c-2.246,1.197-4.495,2.39-6.744,3.586C459.091,177.676,458.902,179.313,458.704,179.928z"/>
		<path d="M458.715,184.426c-1.047,0.523-1.671,0.572-2.022,1.674c-0.478,1.496-0.928,3.001-1.377,4.507
			c2.393-1.246,4.782-2.494,7.173-3.746c1.272-0.667,2.549-1.331,3.818-2.014c1.276-0.685,0.942-3.491,0.985-4.746
			C464.431,181.55,461.577,182.997,458.715,184.426z"/>
		<path d="M457.427,191.069c-0.423,0.217-2.632,0.982-2.781,1.457c-0.463,1.447-0.925,2.895-1.387,4.342
			c6.172-0.11,11.102-4.664,12.986-10.349C463.305,188.037,460.365,189.552,457.427,191.069z"/>
		<path d="M311.903,71.081c-0.059,0.15,0.238,0.731,0.284,0.875c0.82,2.512,1.641,5.027,2.461,7.54
			c2.117-4.568,4.234-9.134,6.353-13.7c-1.628,1.497-4.006,2.316-5.934,3.345C313.977,69.722,312.882,70.328,311.903,71.081z"/>
		<path d="M310.278,72.136c-0.729,0.41-4.957,2.898-4.636,3.797c0.486,1.365,0.973,2.733,1.459,4.101
			c0.698,1.958,1.393,3.92,2.081,5.881c0.138,0.389,0.646,2.812,1.022,2.98c0.637-1.359,1.275-2.72,1.915-4.082
			c0.355-0.756,1.628-2.473,1.341-3.32C312.398,78.373,311.336,75.254,310.278,72.136z"/>
		<path d="M300.59,82.718c0.59,1.766,1.208,3.522,1.817,5.282c1.145,3.295,2.295,6.591,3.448,9.887
			c0.909-1.821,1.817-3.638,2.693-5.471c0.646-1.353,0.101-1.949-0.423-3.372c-1.435-3.886-2.849-7.779-4.26-11.671
			C302.793,78.59,299.994,80.943,300.59,82.718z"/>
		<path d="M304.789,100.288c0.278-0.581-1.13-3.256-1.335-3.837c-1.426-4.036-2.854-8.069-4.283-12.105
			c-3.266,7.029-2.645,15.692,3.078,21.264C303.096,103.835,303.941,102.06,304.789,100.288z"/>
		<path d="M316.725,80.42c2.414-1.077,4.829-2.154,7.243-3.229c0.138-0.061,0.769-0.232,0.842-0.373
			c-0.099-1.233-0.383-2.451-0.683-3.648c-0.529-2.121-1.512-4.434-1.496-6.646C320.661,71.154,318.693,75.787,316.725,80.42z"/>
		<path d="M316.04,82.638c-0.823,0.355-1.242,2.448-1.566,3.219c-0.581,1.386-1.163,2.772-1.744,4.155
			c0.376,0.168,2.519-1.08,2.897-1.239c1.919-0.805,3.838-1.6,5.759-2.399c1.341-0.557,2.681-1.111,4.021-1.665
			c0.881-0.364-0.107-5.168-0.291-5.985C322.089,80.031,319.063,81.335,316.04,82.638z"/>
		<path d="M308.974,99.27c3.216-1.353,6.433-2.708,9.646-4.07c1.714-0.726,3.43-1.448,5.138-2.191c1.72-0.75,1.585-4.4,1.771-6.016
			c-3.834,1.561-7.671,3.124-11.515,4.664c-1.404,0.563-2.216,0.56-2.788,1.946C310.456,95.481,309.714,97.375,308.974,99.27z"/>
		<path d="M323.503,95.154c-3.951,1.646-7.904,3.29-11.854,4.936c-0.569,0.236-3.498,0.988-3.742,1.582
			c-0.747,1.818-1.497,3.635-2.246,5.453C313.631,107.632,320.474,102.287,323.503,95.154z"/>
		<path d="M402.828,152.733c-0.493-1.221-1.01-2.448-1.698-3.574c-0.153-0.08-0.802,0.171-0.961,0.205
			c-2.757,0.584-5.518,1.172-8.274,1.756c4.605,2.763,9.208,5.523,13.813,8.283C404.305,157.51,403.703,154.894,402.828,152.733z"/>
		<path d="M396.692,141.975c-1.505,0.361-3.008,0.726-4.513,1.086c-2.158,0.517-4.315,1.031-6.473,1.542
			c-0.425,0.101-3.054,0.367-3.274,0.746c1.371,0.83,2.742,1.662,4.113,2.491c0.762,0.462,2.436,2.004,3.369,1.796
			c3.427-0.771,6.854-1.545,10.281-2.316C399.841,146.5,397.68,141.736,396.692,141.975z"/>
		<path d="M382.506,143.128c4.284-1.083,8.57-2.142,12.857-3.198c-1.172-1.276-3.351-4.511-5.303-4.079
			c-1.937,0.429-3.871,0.881-5.805,1.331c-3.626,0.842-7.249,1.689-10.872,2.54c1.827,1.169,3.653,2.338,5.499,3.476
			C380.245,144.034,380.939,143.523,382.506,143.128z"/>
		<path d="M365.603,135.02c1.783,1.098,3.57,2.197,5.354,3.295c0.585,0.361,3.58-0.829,4.22-0.982
			c4.44-1.059,8.88-2.117,13.323-3.176C381.417,129.903,372.157,129.582,365.603,135.02z"/>
		<path d="M404.752,161.054c-4.691-2.61-9.382-5.223-14.073-7.833c0.869,2.684,1.738,5.364,2.607,8.048
			c0.049,0.153,0.159,0.841,0.303,0.933c1.319,0.034,2.644-0.128,3.947-0.312C399.844,161.568,402.412,160.788,404.752,161.054z"/>
		<path d="M385.168,150.218c-1.404-0.774-2.807-1.548-4.211-2.319c-0.22,0.382,0.86,2.791,0.985,3.213
			c0.637,2.124,1.264,4.253,1.892,6.38c0.438,1.484,0.875,2.968,1.312,4.452c0.287,0.976,5.492,0.471,6.38,0.367
			c-1.04-3.357-2.081-6.71-3.124-10.067C388.122,151.329,385.952,150.65,385.168,150.218z"/>
		<path d="M374.792,153.56c0.575,1.9,1.147,3.8,1.744,5.694c0.601,1.907,4.489,2.179,6.182,2.558
			c-1.224-4.244-2.445-8.488-3.645-12.739c-0.44-1.554-0.343-2.414-1.747-3.173c-1.906-1.031-3.831-2.032-5.756-3.033
			C372.637,146.433,373.711,149.998,374.792,153.56z"/>
		<path d="M374.287,158.744c-1.297-4.376-2.598-8.755-3.896-13.13c-0.187-0.631-0.651-3.819-1.254-4.146
			c-1.843-0.998-3.685-1.998-5.529-2.999C362.169,146.865,367.065,154.726,374.287,158.744z"/>
		<path d="M420.505,114.493c-0.147,0.006-0.523,0.465-0.624,0.557c-1.797,1.601-3.593,3.201-5.389,4.801
			c4.58,0.098,9.158,0.196,13.739,0.296c-1.843-0.811-3.394-2.494-4.954-3.724C422.393,115.726,421.491,115.034,420.505,114.493z"/>
		<path d="M414.177,111.047c-0.961,0.906-1.922,1.808-2.886,2.714c-1.38,1.294-2.76,2.588-4.144,3.88
			c-0.272,0.254-2.108,1.563-2.111,1.94c1.368,0.037,2.732,0.07,4.101,0.107c0.762,0.021,2.653,0.456,3.256-0.095
			c2.213-2.022,4.425-4.045,6.637-6.068C418.424,113.067,414.807,110.451,414.177,111.047z"/>
		<path d="M406.677,109.312c-1.255,1.138-2.497,2.292-3.739,3.442c-2.329,2.157-4.657,4.317-6.983,6.481
			c1.849,0.092,3.696,0.187,5.545,0.248c1.361,0.046,1.661-0.627,2.656-1.582c2.714-2.613,5.443-5.211,8.173-7.809
			C410.921,109.643,407.938,108.165,406.677,109.312z"/>
		<path d="M388.201,119.043c1.787,0.058,3.574,0.116,5.364,0.178c0.588,0.018,2.305-2.13,2.711-2.513
			c2.843-2.662,5.686-5.324,8.528-7.989C397.751,108.562,390.755,112.241,388.201,119.043z"/>
		<path d="M420.435,127.345c0.991-0.532,1.903-1.215,2.79-1.9c1.573-1.215,3.146-2.879,4.994-3.672
			c-4.581,0.049-9.161,0.098-13.739,0.147c1.778,1.619,3.556,3.241,5.337,4.859C419.917,126.874,420.288,127.336,420.435,127.345z"
			/>
		<path d="M409.125,122.026c-1.368,0.021-2.736,0.04-4.101,0.062c-0.003,0.376,1.82,1.704,2.09,1.961
			c1.371,1.307,2.735,2.616,4.101,3.926c0.951,0.915,1.903,1.83,2.854,2.745c0.624,0.6,4.269-1.977,4.884-2.427
			c-2.19-2.047-4.382-4.091-6.573-6.138C411.785,121.601,409.887,122.018,409.125,122.026z"/>
		<path d="M412.212,131.656c-2.702-2.628-5.404-5.254-8.091-7.897c-0.981-0.967-1.275-1.644-2.638-1.613
			c-1.848,0.042-3.699,0.116-5.548,0.189c2.302,2.188,4.605,4.373,6.913,6.558c1.23,1.163,2.457,2.332,3.699,3.482
			C407.803,133.535,410.799,132.091,412.212,131.656z"/>
		<path d="M396.23,124.866c-0.403-0.389-2.099-2.555-2.684-2.543c-1.787,0.04-3.577,0.08-5.364,0.116
			c2.485,6.83,9.438,10.582,16.49,10.505C401.858,130.255,399.045,127.559,396.23,124.866z"/>
		<path d="M372.221,187.357c-1.925-1.361-3.316-3.657-4.822-5.435c-0.851-1.003-1.726-2.01-2.732-2.861
			c-0.169-0.028-0.71,0.413-0.848,0.496c-2.436,1.42-4.872,2.84-7.308,4.26C361.747,184.998,366.983,186.18,372.221,187.357z"/>
		<path d="M358.201,173.627c-1.316,0.814-2.629,1.631-3.947,2.445c-1.885,1.166-3.773,2.332-5.664,3.491
			c-0.374,0.23-2.788,1.304-2.877,1.735c1.561,0.358,3.125,0.719,4.686,1.08c0.868,0.199,2.943,1.142,3.761,0.649
			c3.014-1.806,6.024-3.614,9.039-5.422C362.607,176.938,359.063,173.092,358.201,173.627z"/>
		<path d="M349.988,169.888c-1.708,1.013-3.4,2.05-5.099,3.082c-3.179,1.934-6.355,3.874-9.531,5.817
			c2.102,0.536,4.201,1.074,6.31,1.579c1.555,0.371,2.053-0.333,3.418-1.199c3.727-2.369,7.47-4.719,11.209-7.065
			C354.786,171.256,351.708,168.866,349.988,169.888z"/>
		<path d="M326.496,176.761c2.041,0.483,4.079,0.967,6.12,1.454c0.67,0.159,3.143-1.91,3.699-2.255
			c3.887-2.396,7.772-4.792,11.656-7.188C339.911,166.947,331.018,169.542,326.496,176.761z"/>
		<path d="M361.588,193.808c1.264-0.379,2.469-0.952,3.65-1.533c2.09-1.028,4.284-2.573,6.594-3.054
			c-5.272-1.01-10.545-2.023-15.816-3.033c1.664,2.277,3.329,4.55,4.996,6.827C361.104,193.144,361.422,193.765,361.588,193.808z"/>
		<path d="M359.667,194.558c-2.041-2.861-4.079-5.722-6.12-8.583c-0.554-0.777-2.831-0.744-3.706-0.909
			c-1.575-0.293-3.151-0.59-4.725-0.884c-0.089,0.432,1.692,2.381,1.943,2.742c1.27,1.818,2.533,3.642,3.794,5.465
			c0.882,1.273,1.76,2.546,2.642,3.819C354.07,197.042,358.855,194.931,359.667,194.558z"/>
		<path d="M343.687,185.892c-0.902-1.34-1.083-2.185-2.653-2.466c-2.136-0.382-4.274-0.728-6.417-1.077
			c2.133,3.051,4.272,6.099,6.411,9.144c1.142,1.625,2.279,3.25,3.439,4.862c1.166,1.622,4.945,0.661,6.671,0.496
			C348.647,193.199,346.16,189.552,343.687,185.892z"/>
		<path d="M342.175,196.571c-2.604-3.749-5.208-7.5-7.812-11.249c-0.373-0.539-1.814-3.424-2.49-3.546
			c-2.062-0.371-4.128-0.744-6.19-1.117C326.946,189.086,334.057,195.017,342.175,196.571z"/>
		<path d="M464.505,263.292c-1.402-1.897-2.005-4.51-2.877-6.671c-0.492-1.221-1.01-2.448-1.698-3.574
			c-0.153-0.08-0.802,0.171-0.961,0.205c-2.757,0.584-5.517,1.172-8.274,1.756C455.297,257.768,459.9,260.531,464.505,263.292z"/>
		<path d="M455.49,245.862c-1.502,0.361-3.008,0.725-4.513,1.086c-2.158,0.517-4.315,1.031-6.473,1.542
			c-0.425,0.101-3.054,0.367-3.274,0.747c1.371,0.83,2.742,1.662,4.113,2.491c0.762,0.462,2.436,2.004,3.369,1.796
			c3.427-0.771,6.854-1.545,10.281-2.316C458.639,250.388,456.478,245.623,455.49,245.862z"/>
		<path d="M432.182,243.606c1.827,1.169,3.653,2.338,5.499,3.476c1.358,0.838,2.056,0.328,3.623-0.067
			c4.284-1.083,8.571-2.142,12.857-3.198c-1.172-1.276-3.351-4.51-5.303-4.079c-1.937,0.428-3.871,0.881-5.805,1.331
			C439.431,241.908,435.808,242.756,432.182,243.606z"/>
		<path d="M424.401,238.906c1.783,1.099,3.57,2.197,5.354,3.296c0.585,0.361,3.58-0.83,4.22-0.982
			c4.44-1.059,8.88-2.118,13.323-3.176C440.214,233.79,430.955,233.469,424.401,238.906z"/>
		<path d="M452.387,266.088c1.319,0.034,2.644-0.128,3.947-0.312c2.308-0.321,4.875-1.102,7.219-0.835
			c-4.691-2.61-9.382-5.224-14.073-7.833c0.869,2.684,1.738,5.364,2.607,8.047C452.136,265.305,452.244,265.994,452.387,266.088z"/>
		<path d="M440.744,254.996c0.637,2.124,1.264,4.253,1.892,6.38c0.438,1.484,0.875,2.968,1.312,4.452
			c0.288,0.976,5.493,0.471,6.38,0.367c-1.04-3.357-2.08-6.71-3.124-10.067c-0.281-0.912-2.454-1.594-3.234-2.022
			c-1.404-0.774-2.806-1.548-4.211-2.32C439.536,252.166,440.619,254.577,440.744,254.996z"/>
		<path d="M435.331,263.142c0.6,1.906,4.489,2.179,6.182,2.558c-1.224-4.244-2.445-8.488-3.645-12.739
			c-0.44-1.555-0.343-2.415-1.747-3.173c-1.906-1.031-3.831-2.032-5.756-3.032c1.07,3.565,2.145,7.126,3.225,10.691
			C434.165,259.344,434.737,261.248,435.331,263.142z"/>
		<path d="M433.084,262.63c-1.297-4.375-2.598-8.754-3.895-13.13c-0.188-0.63-0.652-3.819-1.255-4.146
			c-1.843-0.998-3.685-1.998-5.529-2.999C420.967,250.751,425.863,258.61,433.084,262.63z"/>
		<path d="M400.884,496.926c0.067,0.327,0.129,1.769,0.404,1.995c2.708,0.382,5.475,0.352,8.2,0.281
			c4.829-0.122,10.301-1.136,15.062-0.034c-9.052-6.478-18.105-12.952-27.157-19.428
			C398.559,485.469,399.721,491.197,400.884,496.926z"/>
		<path d="M386.741,472.271c-2.711-1.922-5.422-3.844-8.133-5.763c-0.542,0.731,1.123,5.952,1.282,6.846
			c0.811,4.525,1.612,9.055,2.408,13.583c0.557,3.161,1.11,6.319,1.661,9.48c0.361,2.077,11.206,2.255,13.054,2.249
			c-1.361-7.157-2.72-14.312-4.082-21.47C392.568,475.248,388.25,473.339,386.741,472.271z"/>
		<path d="M371.582,461.543c-3.687-2.57-7.42-5.08-11.147-7.592c1.374,7.595,2.754,15.187,4.146,22.775
			c0.743,4.048,1.475,8.1,2.262,12.139c0.789,4.067,8.739,5.539,12.133,6.717c-1.527-9.03-3.054-18.057-4.532-27.096
			C373.902,465.181,374.299,463.437,371.582,461.543z"/>
		<path d="M355.761,450.493c-3.564-2.488-7.126-4.976-10.691-7.467c-4.93,16.959,3.32,34.3,17.265,44.26
			c-1.652-9.32-3.305-18.638-4.957-27.959C357.142,457.99,356.927,451.311,355.761,450.493z"/>
		<path d="M419.866,473.819c-0.297-0.195-1.695,0.165-2.025,0.196c-5.82,0.562-11.638,1.123-17.458,1.686
			c8.838,6.766,17.678,13.531,26.516,20.297c-2.442-4.234-3.076-9.761-4.37-14.415C421.802,478.951,421.022,476.298,419.866,473.819
			z"/>
		<path d="M396.646,472.18c7.24-0.79,14.483-1.582,21.724-2.372c-0.536-1.769-3.874-12.09-5.964-11.83
			c-3.183,0.396-6.368,0.79-9.551,1.182c-4.562,0.562-9.128,1.123-13.693,1.668c-0.902,0.109-6.38,0.042-6.925,0.776
			c2.629,2.032,5.26,4.064,7.889,6.093C391.591,468.825,394.679,472.396,396.646,472.18z"/>
		<path d="M382.917,457.038c9.072-1.227,18.154-2.405,27.236-3.583c-2.123-2.9-5.848-10.073-9.969-9.639
			c-4.095,0.432-8.183,0.915-12.271,1.386c-7.666,0.888-15.331,1.787-22.993,2.689c3.491,2.834,6.979,5.671,10.518,8.446
			C378.042,458.379,379.596,457.488,382.917,457.038z"/>
		<path d="M349.981,436.393c3.422,2.681,6.846,5.358,10.267,8.039c1.12,0.878,7.57-0.872,8.923-1.038
			c9.397-1.145,18.792-2.285,28.186-3.43C383.751,429.544,364.761,426.72,349.981,436.393z"/>
	</g>
</g>
<g>
</g>
<g>
</g>
<g>
</g>
<g>
</g>
<g>
</g>
<g>
</g>
<g>
</g>
<g>
</g>
<g>
</g>
<g>
</g>
<g>
</g>
<g>
</g>
<g>
</g>
<g>
</g>
<g>
</g>
</svg>
